<svg xmlns="http://www.w3.org/2000/svg" width="433.000000pt" height="464.000000pt" viewBox="0 0 433.000000 464.000000" preserveAspectRatio="xMidYMid meet"><g transform="translate(0.000000,464.000000) scale(0.100000,-0.100000)" fill="#000000" stroke="none"><path d="M1968 4549 c-747 -72 -1387 -587 -1691 -1359 -109 -277 -161 -565 -161 -890 0 -314 50 -604 150 -861 20 -52 37 -101 38 -109 3 -19 46 -113 56 -120 3 -3 28 -45 54 -95 105 -196 352 -505 461 -576 22 -15 56 -43 75 -63 19 -20 63 -55 97 -77 35 -23 61 -44 59 -48 -5 -8 46 -35 224 -119 527 -251 1111 -251 1626 -1 67 33 129 59 139 59 9 0 36 21 60 47 23 27 79 70 124 96 44 26 83 52 86 58 4 5 14 9 24 9 22 0 64 43 54 56 -5 5 -4 6 1 1 10 -8 56 30 56 46 0 13 169 206 191 218 11 5 19 15 19 22 0 7 25 48 56 92 148 213 288 537 348 807 45 198 59 336 60 553 0 328 -51 616 -161 895 -193 491 -511 871 -929 1112 -342 197 -733 284 -1116 247z m333 -100 c57 -5 149 -19 204 -30 402 -82 815 -340 1079 -676 151 -192 269 -407 354 -638 185 -508 185 -1100 0 -1610 -42 -115 -174 -392 -208 -435 l-20 -25 0 136 c0 104 -3 139 -14 148 -9 8 -52 11 -127 9 l-114 -3 -3 -312 -2 -312 -85 -75 -85 -76 -200 0 -199 0 -3 78 -3 77 -97 3 -97 3 -3 97 c-3 92 -4 97 -25 100 -23 3 -23 4 -23 193 0 197 -6 229 -40 229 -19 0 -20 9 -20 221 0 121 -2 224 -5 230 -4 5 -26 9 -50 9 l-45 0 -2 282 -3 283 -47 3 -48 3 -2 302 -3 302 -22 10 c-22 9 -23 14 -23 150 0 146 -5 165 -42 165 -18 0 -19 11 -17 178 l1 177 -26 3 c-24 3 -26 7 -26 53 0 46 -2 49 -25 49 -24 0 -25 -3 -25 -55 0 -52 1 -55 25 -55 24 0 25 -2 25 -75 0 -73 -1 -75 -25 -75 -23 0 -25 3 -25 49 0 48 -17 70 -41 55 -5 -3 -9 30 -9 76 l0 81 -27 -3 c-26 -3 -26 -4 -24 -73 2 -70 2 -70 -28 -82 l-31 -11 0 -201 0 -200 -47 -3 -48 -3 -3 -357 -2 -357 -23 -3 -22 -3 -3 -252 -2 -253 -34 0 c-70 0 -66 17 -66 -291 0 -262 -1 -279 -18 -279 -40 0 -42 -15 -42 -266 l0 -243 -47 -3 -48 -3 -3 -77 -3 -78 -92 0 c-59 0 -97 -4 -105 -12 -7 -7 -12 -40 -12 -80 l0 -68 -184 0 -185 0 -70 61 -71 62 -2 326 -3 326 -114 3 c-75 2 -118 -1 -127 -9 -11 -9 -14 -47 -14 -173 l0 -161 -46 70 c-105 162 -228 451 -278 655 -179 726 -26 1464 420 2033 265 337 678 595 1084 677 193 38 340 47 511 29z m-191 -1089 l0 -180 -25 0 -25 0 0 180 0 180 25 0 25 0 0 -180z m100 5 c0 -73 -1 -75 -25 -75 -24 0 -25 2 -25 75 0 73 1 75 25 75 24 0 25 -2 25 -75z m50 -160 c0 -23 -3 -25 -50 -25 -47 0 -50 2 -50 25 0 23 3 25 50 25 47 0 50 -2 50 -25z m-260 -280 c0 -198 -1 -205 -20 -205 -19 0 -20 7 -20 205 0 198 1 205 20 205 19 0 20 -7 20 -205z m110 0 l0 -205 -25 0 -25 0 0 205 0 205 25 0 25 0 0 -205z m150 130 l0 -75 -50 0 -50 0 0 75 0 75 50 0 50 0 0 -75z m50 -235 l0 -100 -75 0 -75 0 0 100 0 100 75 0 75 0 0 -100z m-310 -260 c0 -93 -1 -100 -20 -100 -19 0 -20 7 -20 100 0 93 1 100 20 100 19 0 20 -7 20 -100z m110 -180 l0 -280 -25 0 -25 0 0 280 0 280 25 0 25 0 0 -280z m200 131 l0 -150 -47 -3 -48 -3 -3 -127 -3 -128 -24 0 -25 0 0 280 0 280 75 0 75 0 0 -149z m-310 -256 l0 -155 -50 0 -50 0 0 155 0 155 50 0 50 0 0 -155z m420 -55 l0 -101 -77 3 -78 3 -3 98 -3 97 80 0 81 0 0 -100z m-418 -386 l-3 -235 -22 3 c-22 3 -22 6 -25 181 -2 179 -3 182 -39 178 -9 -1 -13 15 -13 54 l0 55 53 0 52 0 -3 -236z m106 4 l-3 -233 -22 -3 -23 -3 0 235 0 236 25 0 25 0 -2 -232z m102 -3 l0 -235 -25 0 -25 0 0 235 0 235 25 0 25 0 0 -235z m210 105 l0 -130 -49 0 c-60 0 -61 -3 -61 -122 0 -87 -1 -89 -22 -86 -23 3 -23 3 -26 223 -1 121 0 225 2 232 4 9 29 13 81 13 l75 0 0 -130z m-520 -185 l0 -155 -50 0 -50 0 0 155 0 155 50 0 50 0 0 -155z m620 -75 l0 -80 -75 0 -75 0 0 80 0 80 75 0 75 0 0 -80z m-618 -187 c2 -32 2 -136 0 -230 l-3 -173 -24 0 -24 0 -3 153 c-3 149 -3 152 -25 155 -22 3 -23 8 -23 78 l0 74 50 0 49 0 3 -57z m100 -58 c2 -63 2 -167 0 -230 -3 -114 -3 -115 -28 -115 l-24 0 0 230 1 230 24 0 c24 0 24 -1 27 -115z m108 -115 l0 -230 -25 0 -25 0 0 230 0 230 25 0 25 0 0 -230z m100 0 l0 -230 -25 0 -25 0 0 230 0 230 25 0 25 0 0 -230z m102 63 c2 -93 2 -196 0 -230 -3 -59 -4 -63 -27 -63 l-24 0 -1 230 0 230 25 0 24 0 3 -167z m208 67 l0 -100 -44 0 c-25 0 -48 -4 -51 -10 -3 -5 -6 -64 -6 -130 l1 -120 -25 0 c-23 0 -24 4 -27 63 -2 34 -2 137 0 230 l3 167 74 0 75 0 0 -100z m-720 -235 l0 -125 -25 0 -25 0 0 125 0 125 25 0 25 0 0 -125z m-980 -197 l0 -271 -20 18 c-12 11 -45 51 -75 90 l-55 71 0 182 0 182 75 0 75 0 0 -272z m1750 172 l0 -100 -50 0 -50 0 0 100 0 100 50 0 50 0 0 -100z m1080 -67 l-5 -168 -69 -87 c-38 -49 -71 -88 -73 -88 -1 0 -3 115 -3 255 l0 255 78 0 77 0 -5 -167z m-1850 -323 l0 -230 -75 0 -75 0 0 134 0 135 48 3 47 3 3 93 c3 90 3 92 27 92 l25 0 0 -230z m100 0 l0 -230 -25 0 -25 0 0 230 0 230 25 0 25 0 0 -230z m100 -1 l0 -230 -22 3 c-23 3 -23 3 -26 231 l-2 227 25 0 25 0 0 -231z m110 1 l0 -230 -25 0 -25 0 0 230 0 230 25 0 25 0 0 -230z m100 0 l0 -230 -25 0 -25 0 0 230 0 230 25 0 25 0 0 -230z m100 -1 l0 -230 -22 3 c-23 3 -23 3 -26 231 l-2 227 25 0 25 0 0 -231z m110 1 l0 -230 -25 0 -25 0 0 230 0 230 25 0 25 0 0 -230z m152 158 c3 -67 5 -73 26 -76 22 -3 22 -5 22 -158 l0 -154 -75 0 -75 0 0 230 0 230 50 0 49 0 3 -72z m-982 -338 l0 -50 -75 0 -75 0 0 50 0 50 75 0 75 0 0 -50z m1240 0 l0 -50 -75 0 -75 0 0 50 0 50 75 0 75 0 0 -50z m320 -143 c-36 -24 -90 -58 -121 -75 l-56 -32 -828 0 -828 0 -56 32 c-31 17 -85 51 -121 75 l-65 43 1070 0 1070 0 -65 -43z m-320 -176 c-36 -21 -233 -81 -327 -100 -243 -50 -472 -50 -715 0 -95 19 -292 79 -328 100 -9 5 287 8 685 8 398 0 694 -3 685 -8z"></path><path d="M2110 3960 l0 -210 25 0 25 0 0 210 0 210 -25 0 -25 0 0 -210z"></path></g></svg>