<svg xmlns="http://www.w3.org/2000/svg" width="446.000000pt" height="443.000000pt" viewBox="0 0 446.000000 443.000000" preserveAspectRatio="xMidYMid meet"><g transform="translate(0.000000,443.000000) scale(0.100000,-0.100000)" fill="#000000" stroke="none"><path d="M1970 4194 c-180 -17 -417 -69 -549 -120 -305 -119 -584 -310 -782 -534 -149 -171 -223 -283 -319 -482 -263 -550 -263 -1186 0 -1736 95 -198 165 -304 320 -482 36 -42 80 -95 99 -118 18 -23 37 -39 42 -36 4 2 41 -23 81 -57 40 -34 106 -83 146 -110 67 -46 83 -61 65 -58 -20 3 -24 -2 -13 -16 7 -8 29 -15 50 -15 23 0 75 -18 141 -48 57 -27 115 -53 129 -60 24 -10 24 -11 3 -11 -46 -2 -21 -20 35 -25 31 -4 122 -22 202 -40 208 -49 302 -60 500 -60 196 0 319 16 504 64 64 16 130 30 145 30 15 0 43 5 61 12 27 9 30 13 16 18 -13 4 -2 12 41 29 135 56 355 182 423 245 47 43 117 96 127 96 13 0 188 195 269 300 73 94 135 198 204 342 263 550 263 1186 0 1736 -96 199 -170 311 -319 482 -198 224 -477 415 -782 534 -91 35 -281 83 -403 102 -102 15 -353 25 -436 18z m315 -34 c740 -70 1358 -527 1645 -1217 52 -123 93 -272 121 -429 32 -184 32 -464 0 -648 -49 -278 -134 -503 -284 -746 -65 -106 -272 -358 -284 -346 -3 2 -4 140 -3 305 0 207 -3 301 -10 301 -7 0 -10 -93 -10 -295 1 -162 -1 -299 -4 -304 -7 -10 -56 9 -56 22 0 4 -6 7 -12 7 -7 1 -23 9 -35 19 -23 19 -23 21 -23 309 0 255 -2 291 -16 296 -9 3 -97 5 -197 4 l-182 -2 185 -6 185 -5 6 -43 c3 -23 3 -153 1 -287 -4 -217 -7 -245 -21 -246 -13 -1 -13 -2 2 -6 9 -2 17 -9 17 -14 0 -5 6 -9 13 -9 15 0 57 -33 57 -44 0 -3 -144 -6 -320 -6 -238 0 -325 3 -340 12 -37 23 -82 -34 -51 -65 8 -8 11 -6 11 6 0 16 28 17 369 17 212 0 372 -4 375 -9 11 -17 -155 -151 -275 -222 l-67 -40 -164 0 c-89 -1 -180 0 -200 0 l-38 1 0 110 c0 67 -4 110 -10 110 -6 0 -10 -42 -10 -106 l0 -106 -27 5 c-17 3 -33 -1 -46 -14 -12 -11 -34 -19 -51 -18 -21 1 -25 3 -11 6 24 6 44 23 27 23 -9 0 -12 158 -12 681 l0 680 28 -3 27 -3 3 -108 c3 -102 1 -109 -18 -114 -29 -8 -29 -92 0 -111 19 -12 20 -23 20 -367 0 -230 4 -355 10 -355 6 0 10 122 10 345 l0 345 414 0 c242 0 417 -4 420 -9 4 -5 20 -2 39 7 30 16 10 17 -418 22 -247 3 -438 8 -423 13 44 12 837 8 861 -4 21 -12 67 2 67 20 0 6 -183 10 -497 11 -274 0 -501 4 -505 8 -4 4 -5 17 -2 30 l6 22 487 0 c365 0 490 -3 499 -12 9 -9 12 -7 12 9 0 19 -7 22 -47 25 l-48 3 -3 152 -3 151 41 18 c39 18 40 19 40 71 l0 53 -40 0 -40 0 0 271 c0 167 4 278 10 290 9 16 7 19 -14 19 -22 0 -24 -3 -19 -41 4 -29 2 -44 -8 -50 -8 -5 -172 -9 -369 -9 -195 1 -384 0 -420 -2 -36 -1 129 -5 365 -8 l430 -5 3 -232 2 -233 -450 0 c-439 0 -450 0 -450 19 0 11 -4 23 -10 26 -5 3 -10 13 -10 21 0 8 -5 20 -10 27 -6 7 -25 32 -44 56 -40 52 -113 111 -135 110 -12 0 -13 -2 -2 -6 31 -13 105 -88 151 -155 37 -54 40 -63 40 -126 0 -61 3 -71 26 -91 25 -22 26 -22 457 -24 l432 -2 3 -152 3 -153 -421 0 -420 0 -1 128 c0 129 -9 189 -21 144 -7 -27 -53 -31 -62 -6 -4 9 -9 14 -12 11 -4 -3 -6 -314 -5 -691 1 -456 -2 -692 -8 -705 -7 -13 -17 -17 -31 -14 -36 9 -49 -13 -48 -83 1 -65 2 -66 38 -89 25 -16 56 -25 91 -27 52 -3 50 -4 -61 -26 -259 -52 -511 -52 -770 0 -109 22 -113 23 -69 28 26 3 63 17 83 30 35 24 36 27 36 87 0 66 -12 83 -59 83 l-21 0 0 694 c0 453 -3 697 -10 701 -5 3 -10 1 -10 -4 0 -6 -14 -11 -30 -11 -22 0 -33 6 -39 22 -12 33 -23 -62 -15 -138 4 -34 4 -78 0 -98 l-7 -36 -414 0 c-287 0 -416 3 -421 11 -4 8 -9 8 -17 0 -6 -6 -24 -11 -39 -11 -16 0 -28 -5 -28 -12 0 -10 89 -12 427 -8 501 6 566 3 571 -24 2 -10 0 -22 -6 -28 -10 -10 -950 -12 -976 -2 -28 11 -18 -23 14 -46 29 -21 38 -21 460 -23 l430 -2 4 -482 c3 -378 1 -486 -9 -499 -24 -34 -35 16 -34 155 1 71 -2 134 -5 140 -4 6 -16 11 -27 11 -10 0 -19 5 -19 10 0 6 -7 10 -15 10 -8 0 -24 9 -35 20 -19 19 -20 36 -22 312 -3 284 -4 293 -23 295 -11 2 -14 0 -7 -3 10 -5 12 -71 12 -302 l-1 -297 23 -15 c13 -8 25 -18 26 -22 2 -5 11 -8 20 -8 11 0 13 -3 6 -10 -7 -7 -120 -9 -335 -6 -468 7 -408 -3 -482 80 -267 302 -419 617 -488 1012 -32 184 -32 464 0 648 87 495 331 915 711 1223 384 310 906 469 1395 423z m1260 -2150 l0 -25 -492 -3 -493 -2 0 30 0 30 493 -2 492 -3 0 -25z m-58 -63 c3 -4 -194 -7 -438 -7 -279 0 -439 4 -429 10 16 10 856 7 867 -3z m-1812 -129 c3 -13 5 -63 3 -113 -3 -89 -3 -90 -30 -93 -24 -3 -28 1 -33 31 -8 40 -1 169 9 186 12 20 45 13 51 -11z m-70 -318 c4 -7 -142 -10 -429 -10 -284 0 -436 3 -436 10 0 7 150 10 429 10 276 0 432 -4 436 -10z m75 -512 c0 -430 -2 -488 -16 -502 -14 -15 -13 -17 8 -26 22 -9 22 -10 -5 -7 -15 1 -27 6 -26 11 0 5 -4 12 -11 16 -8 5 -11 140 -12 491 0 266 0 490 1 497 1 18 44 32 53 18 4 -6 8 -230 8 -498z m-150 -383 l0 -135 -167 -1 c-93 -1 -179 0 -193 1 -50 3 -294 170 -364 249 l-19 21 371 0 372 0 0 -135z m230 -214 c0 -52 -16 -76 -45 -65 -9 4 -20 1 -25 -6 -5 -8 -36 -12 -98 -12 -81 0 -101 4 -184 38 -51 20 -111 46 -133 58 l-40 21 205 3 c224 3 250 0 250 -26 0 -12 5 -9 18 11 9 15 25 27 34 27 15 0 18 -9 18 -49z m728 -14 c3 -53 -7 -73 -23 -47 -9 14 -15 92 -9 102 14 23 29 -4 32 -55z m478 32 c-22 -12 -84 -39 -138 -61 -86 -34 -109 -39 -193 -42 -52 -1 -100 1 -106 5 -12 7 -15 92 -4 109 2 4 112 8 242 8 l238 1 -39 -20z"></path><path d="M1845 3930 c-3 -5 -3 -10 2 -10 4 0 128 0 275 0 l267 1 7 -26 c14 -57 20 -56 -286 -53 -182 2 -280 -1 -280 -7 0 -5 -13 -19 -29 -30 -16 -11 -54 -40 -86 -65 -225 -178 -211 -170 -304 -170 l-81 0 1 -42 c1 -28 3 -34 6 -18 3 14 8 28 11 32 4 4 58 8 120 9 110 3 145 11 100 22 -22 6 -21 7 7 32 17 15 55 45 85 68 30 23 57 44 60 47 17 17 98 79 117 88 15 8 107 12 291 12 l270 0 49 -39 c26 -21 60 -49 74 -62 14 -13 46 -41 72 -62 59 -48 77 -66 77 -78 0 -5 -209 -9 -527 -9 -289 0 -523 -3 -519 -7 4 -5 285 -10 624 -13 l617 -5 -1 -62 -1 -63 31 0 30 0 -22 16 c-20 14 -23 24 -22 68 1 28 1 56 1 61 -1 6 -32 9 -79 7 l-77 -3 -56 48 c-31 26 -80 68 -109 93 -29 25 -62 53 -74 64 -12 10 -31 25 -43 33 -19 13 -23 24 -23 68 0 39 -4 54 -16 59 -27 11 -552 7 -559 -4z"></path><path d="M1320 3441 c-9 -19 -8 -21 15 -21 28 0 32 12 11 29 -12 10 -17 8 -26 -8z"></path><path d="M1015 3418 c-3 -7 -6 -76 -7 -153 l-3 -140 -133 -5 c-72 -3 -132 -8 -132 -12 0 -5 0 -13 0 -19 0 -9 4 -8 14 0 10 8 375 10 1367 9 l1354 -3 3 -118 3 -117 -1489 0 c-819 0 -1497 -2 -1506 -6 -12 -4 -16 -19 -16 -54 0 -42 4 -51 29 -69 16 -12 34 -21 40 -21 6 0 19 -4 29 -10 9 -5 47 -23 85 -41 l67 -31 0 -47 c0 -56 13 -82 32 -63 9 9 212 12 927 12 503 0 912 2 909 5 -2 3 -414 5 -914 6 -501 0 -917 4 -924 9 -19 12 -21 41 -5 66 16 25 11 34 -21 34 -12 0 -24 4 -26 8 -4 10 -102 52 -122 52 -27 0 -18 17 12 23 15 3 721 5 1569 4 1218 -2 1545 -5 1555 -14 9 -10 8 -13 -9 -13 -12 0 -25 -4 -28 -10 -3 -5 -13 -10 -21 -10 -8 0 -34 -9 -56 -20 -23 -11 -48 -20 -55 -20 -7 0 -13 -4 -13 -10 0 -5 11 -10 25 -10 14 0 25 5 25 10 0 6 9 10 20 10 11 0 20 5 20 10 0 6 8 10 18 11 9 0 51 17 92 37 l75 37 3 49 c2 32 -1 52 -10 57 -7 5 -77 9 -155 9 l-142 0 -3 128 -3 127 -140 5 -140 5 -3 153 c-3 205 -22 202 -22 -3 l0 -155 -1082 2 -1083 3 -3 138 c-2 116 0 138 13 143 8 4 15 10 15 15 0 14 -30 11 -35 -3z m2718 -588 l47 0 0 -35 0 -35 -1645 0 -1645 0 0 34 c0 24 5 35 17 38 12 2 2875 1 3226 -2z"></path><path d="M1638 3413 c7 -3 16 -2 19 1 4 3 -2 6 -13 5 -11 0 -14 -3 -6 -6z"></path><path d="M2688 3413 c12 -2 30 -2 40 0 9 3 -1 5 -23 4 -22 0 -30 -2 -17 -4z"></path><path d="M1463 3384 c4 -4 17 -12 29 -18 13 -6 29 -24 36 -39 14 -29 32 -36 32 -13 0 23 -56 76 -81 76 -12 0 -19 -3 -16 -6z"></path><path d="M1683 3382 c-22 -3 -23 -7 -23 -100 l0 -97 427 2 c236 2 431 3 436 3 4 0 7 3 7 8 0 4 -190 7 -422 7 l-423 0 0 80 0 80 398 3 c263 1 405 -1 417 -8 14 -8 20 -8 20 0 0 6 -6 13 -12 15 -15 5 -792 12 -825 7z"></path><path d="M2652 3355 c-25 -27 -32 -43 -32 -75 0 -41 5 -52 50 -95 39 -39 96 -35 143 10 37 35 47 55 27 55 -6 0 -14 -8 -17 -17 -14 -36 -46 -53 -95 -50 -37 2 -50 7 -59 25 -7 12 -16 22 -21 22 -4 0 -8 21 -8 46 0 41 5 50 37 80 23 21 31 34 22 34 -9 0 -30 -16 -47 -35z"></path><path d="M2797 3352 c21 -20 42 -34 48 -29 12 10 -48 67 -70 67 -11 0 -4 -12 22 -38z"></path><path d="M1350 3338 c-38 -41 -22 -112 35 -160 26 -22 103 -24 111 -3 4 8 10 15 16 15 18 0 38 28 37 52 -1 23 -1 23 -11 -3 -14 -34 -39 -49 -91 -54 -37 -4 -45 0 -69 26 -33 36 -39 101 -11 131 9 10 13 18 10 18 -3 0 -15 -10 -27 -22z"></path><path d="M1073 2436 c-37 -21 -63 -48 -63 -66 0 -10 -7 -20 -15 -24 -11 -4 -15 -21 -15 -66 0 -60 1 -62 50 -110 38 -39 56 -50 80 -50 18 0 29 4 25 10 -3 6 -16 10 -28 10 -46 0 -107 75 -107 132 0 50 15 87 53 126 28 29 36 32 92 32 53 0 64 -4 90 -28 45 -42 55 -66 55 -127 0 -30 5 -55 10 -55 19 0 11 106 -11 148 -38 70 -149 105 -216 68z"></path><path d="M2972 2435 c-29 -16 -73 -57 -67 -63 2 -2 -2 -11 -10 -19 -17 -16 -20 -33 -5 -33 5 0 16 15 25 34 9 18 27 39 40 46 14 7 25 17 25 22 0 4 25 8 56 8 94 0 154 -57 154 -146 0 -23 -6 -53 -13 -67 -18 -34 -71 -77 -95 -77 -12 0 -24 -4 -27 -10 -12 -19 47 -10 78 12 48 33 57 44 57 67 0 12 5 21 10 21 6 0 10 22 10 49 0 28 -4 53 -10 56 -5 3 -10 13 -10 21 0 19 -26 46 -70 73 -40 24 -111 27 -148 6z"></path><path d="M2025 2380 c-13 -6 16 -8 80 -8 65 0 91 3 75 8 -33 11 -130 11 -155 0z"></path><path d="M1936 2361 c-3 -5 0 -11 8 -14 18 -7 56 3 56 14 0 12 -57 12 -64 0z"></path><path d="M2210 2361 c0 -5 23 -14 50 -20 72 -16 80 -14 37 9 -38 21 -87 27 -87 11z"></path><path d="M1860 2324 c-25 -14 -62 -42 -83 -62 -50 -47 -114 -141 -119 -173 l-3 -24 -507 -3 -508 -2 0 -41 c0 -43 14 -79 31 -79 6 0 24 -9 40 -21 23 -16 33 -18 43 -10 10 8 138 11 439 11 417 -1 426 -1 446 19 12 12 22 26 23 31 2 7 -166 11 -502 13 l-505 2 0 25 0 25 503 0 c439 0 502 2 502 15 0 8 9 30 20 48 11 18 20 39 20 46 0 8 3 16 8 18 4 2 28 29 55 60 31 37 66 66 102 84 30 14 55 30 55 35 0 14 -11 10 -60 -17z m-279 -375 c8 -5 -169 -8 -431 -8 -245 1 -434 4 -420 9 35 10 834 10 851 -1z"></path><path d="M2045 2301 l-30 -7 25 -7 c35 -9 112 -8 128 2 29 18 -59 26 -123 12z"></path><path d="M1923 2264 c-29 -13 -53 -28 -53 -34 0 -5 -5 -10 -10 -10 -23 0 -102 -97 -117 -142 -3 -10 -9 -18 -14 -18 -5 0 -9 -13 -9 -29 0 -17 -4 -33 -10 -36 -5 -3 -10 -22 -10 -41 0 -19 5 -34 10 -34 6 0 10 18 10 39 0 22 5 43 10 46 6 3 10 17 10 31 0 13 4 24 9 24 5 0 11 8 14 18 10 29 41 75 65 95 12 10 29 25 36 33 8 8 19 14 24 14 5 0 15 6 21 13 6 8 29 19 50 26 22 6 42 15 45 19 10 16 -31 9 -81 -14z"></path><path d="M2218 2273 c6 -2 18 -2 25 0 6 3 1 5 -13 5 -14 0 -19 -2 -12 -5z"></path><path d="M2286 2247 c73 -42 110 -78 150 -144 14 -24 29 -43 33 -43 4 0 8 -12 9 -27 3 -37 12 -43 12 -7 0 25 -57 132 -85 159 -31 31 -102 75 -119 75 -21 0 -21 0 0 -13z"></path><path d="M2880 2237 c0 -20 51 -82 83 -101 32 -18 72 -22 62 -6 -3 6 -14 10 -24 10 -23 0 -88 59 -92 84 -5 23 -29 34 -29 13z"></path><path d="M1270 2206 c0 -20 -61 -66 -88 -66 -12 0 -22 -4 -22 -10 0 -27 63 -5 107 37 25 24 29 38 13 48 -5 3 -10 -1 -10 -9z"></path><path d="M2491 1968 c0 -13 4 -32 8 -42 11 -29 24 -2 16 34 -8 35 -25 40 -24 8z"></path><path d="M934 1879 c-12 -20 -16 -173 -5 -202 l11 -27 222 2 223 3 3 118 3 117 -225 0 c-152 0 -227 -4 -232 -11z m431 -104 l0 -100 -190 -3 c-104 -1 -200 0 -212 3 -22 5 -23 10 -23 99 0 66 4 96 13 99 6 3 102 5 212 4 l200 -2 0 -100z"></path><path d="M2825 1868 c-3 -13 -5 -66 -3 -118 l3 -95 230 0 230 0 0 115 0 115 -227 3 -228 2 -5 -22z m433 3 c9 -5 12 -33 10 -102 l-3 -94 -205 0 -205 0 -3 89 c-2 49 -1 94 1 100 5 13 385 20 405 7z"></path><path d="M907 1433 c-13 -12 -7 -26 6 -15 8 7 70 13 148 15 l134 3 -141 2 c-77 1 -144 -1 -147 -5z"></path><path d="M1348 1433 c6 -2 18 -2 25 0 6 3 1 5 -13 5 -14 0 -19 -2 -12 -5z"></path><path d="M2797 1433 c-4 -3 -7 -136 -7 -295 l0 -289 -35 -20 c-37 -22 -45 -39 -20 -39 8 0 15 5 15 10 0 6 5 10 10 10 6 0 22 7 36 16 18 12 22 20 14 29 -8 9 -10 106 -8 299 2 157 3 286 2 286 0 0 -4 -3 -7 -7z"></path><path d="M2853 1433 c15 -2 37 -2 50 0 12 2 0 4 -28 4 -27 0 -38 -2 -22 -4z"></path><path d="M890 857 c0 -7 -16 -21 -35 -31 -37 -20 -46 -36 -20 -36 8 0 15 4 15 9 0 5 10 13 23 17 12 4 30 12 39 18 15 11 15 13 -3 24 -15 10 -19 10 -19 -1z"></path></g></svg>