<svg xmlns="http://www.w3.org/2000/svg" width="315.000000pt" height="365.000000pt" viewBox="0 0 315.000000 365.000000" preserveAspectRatio="xMidYMid meet"><g transform="translate(0.000000,365.000000) scale(0.100000,-0.100000)" fill="#000000" stroke="none"><path d="M1240 3535 c-482 -72 -887 -408 -1085 -900 -86 -214 -119 -393 -119 -640 0 -389 105 -711 329 -1010 224 -298 544 -488 904 -534 444 -58 908 149 1196 534 163 218 260 445 311 730 25 138 25 422 0 560 -88 491 -346 880 -731 1103 -244 141 -534 197 -805 157z m343 -80 c450 -68 833 -390 1021 -857 70 -175 116 -413 116 -603 0 -115 -29 -325 -60 -438 -128 -464 -459 -834 -872 -972 -253 -84 -493 -84 -746 0 -413 138 -744 508 -872 972 -31 111 -60 322 -60 433 0 110 29 342 41 334 5 -3 6 2 3 11 -8 20 29 154 72 262 158 394 454 687 816 808 187 62 357 78 541 50z"></path><path d="M1189 3178 c-9 -7 -37 -39 -63 -70 l-48 -58 -147 0 c-101 0 -151 -4 -159 -12 -8 -8 -12 -55 -12 -145 l0 -133 -44 0 c-52 0 -56 -7 -56 -91 0 -58 0 -59 -28 -59 -43 0 -52 -17 -52 -92 l0 -68 -90 0 c-75 0 -92 -3 -97 -16 -10 -26 11 -49 48 -52 26 -3 50 -19 105 -73 l72 -69 381 0 382 0 -3 -77 -3 -77 -33 -10 c-45 -13 -118 -79 -134 -121 -10 -30 -16 -35 -45 -35 l-33 0 0 88 c0 95 -12 127 -46 120 -17 -3 -20 -14 -24 -103 l-5 -100 -192 -3 -192 -2 -3 96 c-3 101 -14 125 -52 111 -13 -5 -16 -23 -16 -107 l0 -100 -35 0 c-23 0 -38 -6 -44 -18 -15 -29 5 -52 45 -52 l35 0 -3 -92 -3 -93 -32 -3 c-67 -7 -59 -72 8 -72 l29 0 -2 -227 -3 -228 -32 -3 c-40 -4 -65 -39 -36 -48 53 -18 73 -31 73 -46 0 -9 -6 -21 -14 -25 -7 -4 -16 -21 -20 -38 -5 -26 -1 -33 29 -52 25 -16 35 -18 35 -9 0 23 36 26 325 26 205 0 284 3 293 12 9 9 12 130 12 484 l0 471 23 33 c50 74 115 95 190 62 29 -13 54 -33 67 -54 19 -32 20 -49 20 -504 0 -361 3 -474 13 -487 11 -14 49 -16 357 -18 190 -1 353 2 363 6 35 15 13 45 -33 45 -12 0 -20 10 -24 31 -8 39 -3 46 35 54 21 5 29 11 25 22 -3 8 -6 18 -6 23 0 5 -12 10 -27 12 l-28 3 -3 228 -2 227 29 0 c67 0 75 65 8 72 l-32 3 -3 92 -3 92 32 3 c63 6 61 68 -2 68 l-29 0 0 100 c0 84 -3 102 -16 107 -38 14 -49 -10 -52 -111 l-3 -96 -192 2 -192 3 -5 100 c-4 89 -7 100 -24 103 -34 7 -46 -25 -46 -120 l0 -88 -34 0 c-31 0 -36 5 -56 45 -24 49 -64 85 -123 110 l-37 15 0 75 0 75 375 0 375 0 76 69 c59 55 84 71 111 73 39 3 60 25 50 52 -5 13 -22 16 -97 16 l-90 0 0 68 c0 75 -9 92 -52 92 -28 0 -28 1 -28 59 0 84 -4 91 -56 91 l-44 0 0 126 c0 69 -5 134 -10 145 -10 17 -23 19 -159 19 l-148 0 -62 70 -63 70 -212 0 c-155 0 -216 -3 -227 -12z m433 -85 c15 -15 28 -30 28 -35 0 -4 -106 -8 -235 -8 -129 0 -235 3 -235 6 0 3 10 19 23 34 l22 29 184 0 185 1 28 -27z m376 -220 l-3 -108 -580 0 -580 0 -3 108 -3 107 586 0 586 0 -3 -107z m102 -223 l0 -40 -685 0 -685 0 0 40 0 40 685 0 685 0 0 -40z m80 -155 l0 -45 -765 0 -765 0 0 45 0 45 765 0 765 0 0 -45z m31 -150 l-38 -35 -765 0 -764 0 -34 35 -34 35 837 0 837 0 -39 -35z m-1153 -587 l-3 -93 -192 -3 -193 -2 0 95 0 95 195 0 196 0 -3 -92z m132 -328 l0 -420 -30 0 -30 0 0 420 0 420 30 0 30 0 0 -420z m510 0 l0 -420 -35 0 -35 0 0 420 0 420 35 0 35 0 0 -420z m460 325 l0 -95 -192 2 -193 3 -3 93 -3 92 196 0 195 0 0 -95z m-1102 -392 l-3 -228 -192 -3 -193 -2 0 230 0 230 195 0 195 0 -2 -227z m1102 -3 l0 -230 -192 2 -193 3 -3 228 -2 227 195 0 195 0 0 -230z m-1102 -322 c-3 -23 -4 -23 -195 -26 l-193 -2 0 25 0 25 196 0 195 0 -3 -22z m1102 -3 l0 -25 -192 2 c-192 3 -193 3 -196 26 l-3 22 195 0 196 0 0 -25z"></path><path d="M960 2895 c-20 -25 -8 -50 25 -50 21 0 31 5 33 18 4 21 -14 47 -33 47 -7 0 -18 -7 -25 -15z"></path><path d="M1212 2901 c-8 -4 -12 -19 -10 -32 l3 -24 210 0 210 0 3 24 c2 13 -2 28 -10 32 -7 5 -98 9 -203 9 -104 0 -196 -4 -203 -9z"></path><path d="M1820 2895 c-20 -25 -8 -50 25 -50 21 0 31 5 33 18 4 21 -14 47 -33 47 -7 0 -18 -7 -25 -15z"></path><path d="M754 1776 c-3 -8 -4 -23 -2 -33 3 -15 15 -18 83 -21 108 -4 127 1 123 36 l-3 27 -98 3 c-78 2 -98 0 -103 -12z"></path><path d="M1867 1784 c-4 -4 -7 -18 -7 -30 0 -30 22 -36 125 -32 l80 3 0 30 0 30 -95 3 c-53 1 -99 0 -103 -4z"></path><path d="M814 2181 c-67 -29 -84 -118 -35 -173 25 -28 36 -33 76 -33 40 0 51 5 76 33 39 44 40 99 2 142 -30 33 -82 46 -119 31z m64 -73 c17 -17 15 -43 -4 -59 -31 -26 -70 25 -44 56 15 18 32 19 48 3z"></path><path d="M1924 2181 c-67 -29 -84 -118 -35 -173 25 -28 36 -33 76 -33 40 0 51 5 76 33 39 44 40 99 2 142 -30 33 -82 46 -119 31z m64 -73 c17 -17 15 -43 -4 -59 -31 -26 -70 25 -44 56 15 18 32 19 48 3z"></path></g></svg>