<svg xmlns="http://www.w3.org/2000/svg" width="315.000000pt" height="365.000000pt" viewBox="0 0 315.000000 365.000000" preserveAspectRatio="xMidYMid meet"><g transform="translate(0.000000,365.000000) scale(0.100000,-0.100000)" fill="#000000" stroke="none"><path d="M1250 3469 c-488 -61 -906 -411 -1080 -904 -183 -522 -71 -1112 286 -1503 36 -39 63 -76 60 -81 -8 -13 21 -41 42 -41 9 0 53 -27 97 -61 133 -100 325 -186 504 -225 106 -24 368 -24 472 -1 204 46 403 140 559 266 15 12 40 21 62 21 20 0 44 7 53 16 14 14 14 19 2 38 -13 19 -11 25 35 75 260 284 398 714 360 1121 -40 425 -239 792 -562 1037 -90 68 -263 158 -369 192 -148 48 -370 69 -521 50z m375 -64 c374 -77 700 -333 878 -690 207 -413 209 -899 6 -1308 -75 -151 -184 -304 -204 -287 -5 4 -23 10 -40 12 l-30 3 -3 228 -2 227 29 0 c67 0 75 65 8 72 l-32 3 -3 93 -3 92 29 0 c64 0 67 62 3 68 l-31 3 0 100 c0 83 -3 101 -16 106 -38 14 -49 -10 -52 -111 l-3 -96 -192 2 -192 3 -5 100 c-4 89 -7 100 -24 103 -34 7 -46 -25 -46 -120 l0 -88 -34 0 c-31 0 -36 5 -56 45 -24 49 -64 85 -123 110 l-37 15 0 75 0 75 375 0 375 0 76 69 c59 55 84 71 111 73 39 3 60 25 50 52 -5 13 -22 16 -97 16 l-90 0 0 68 c0 75 -9 92 -52 92 -28 0 -28 1 -28 59 0 84 -4 91 -56 91 l-44 0 0 126 c0 69 -5 134 -10 145 -10 17 -23 19 -159 19 l-148 0 -62 70 -63 70 -212 0 c-155 0 -216 -3 -227 -12 -9 -7 -37 -39 -63 -70 l-48 -58 -147 0 c-101 0 -151 -4 -159 -12 -8 -8 -12 -55 -12 -145 l0 -133 -44 0 c-52 0 -56 -7 -56 -91 0 -58 0 -59 -28 -59 -43 0 -52 -17 -52 -92 l0 -68 -90 0 c-75 0 -92 -3 -97 -16 -10 -26 11 -49 48 -52 26 -3 50 -19 105 -73 l72 -69 381 0 382 0 -3 -77 -3 -77 -33 -10 c-45 -13 -118 -79 -134 -121 -10 -30 -16 -35 -45 -35 l-33 0 0 88 c0 95 -12 127 -46 120 -17 -3 -20 -14 -24 -103 l-5 -100 -192 -3 -192 -2 -3 96 c-3 101 -14 125 -52 111 -13 -5 -16 -23 -16 -107 l0 -100 -35 0 c-39 0 -59 -24 -44 -52 7 -12 21 -18 45 -18 l35 0 -3 -92 -3 -93 -32 -3 c-67 -7 -59 -72 8 -72 l29 0 -2 -227 -3 -228 -32 -3 c-66 -6 -59 -72 8 -72 22 0 29 -5 29 -19 0 -45 -25 -33 -96 43 -499 536 -495 1413 9 1951 78 84 196 180 283 231 119 70 306 133 449 153 94 13 282 6 380 -14z m-3 -312 c15 -15 28 -30 28 -35 0 -4 -106 -8 -235 -8 -129 0 -235 3 -235 6 0 3 10 19 23 34 l22 29 184 0 185 1 28 -27z m376 -220 l-3 -108 -580 0 -580 0 -3 108 -3 107 586 0 586 0 -3 -107z m102 -223 l0 -40 -685 0 -685 0 0 40 0 40 685 0 685 0 0 -40z m80 -155 l0 -45 -765 0 -765 0 0 45 0 45 765 0 765 0 0 -45z m31 -150 l-38 -35 -765 0 -764 0 -34 35 -34 35 837 0 837 0 -39 -35z m-734 -345 c25 -11 51 -33 63 -52 19 -32 20 -49 20 -504 0 -360 3 -474 13 -487 11 -15 43 -17 286 -19 l274 -3 -70 -47 c-411 -273 -916 -275 -1327 -5 l-80 52 289 3 c192 1 293 6 302 13 10 9 13 102 13 481 0 503 -1 496 52 545 48 46 100 53 165 23z m-419 -242 l-3 -93 -192 -3 -193 -2 0 95 0 95 195 0 196 0 -3 -92z m132 -328 l0 -420 -30 0 -30 0 0 420 0 420 30 0 30 0 0 -420z m510 0 l0 -420 -35 0 -35 0 0 420 0 420 35 0 35 0 0 -420z m460 325 l0 -95 -192 2 -193 3 -3 93 -3 92 196 0 195 0 0 -95z m-1102 -392 l-3 -228 -192 -3 -193 -2 0 230 0 230 195 0 195 0 -2 -227z m1102 -3 l0 -230 -192 2 -193 3 -3 228 -2 227 195 0 195 0 0 -230z m-1102 -322 c-3 -23 -4 -23 -195 -26 l-193 -2 0 25 0 25 196 0 195 0 -3 -22z m1102 -3 l0 -25 -192 2 c-192 3 -193 3 -196 26 l-3 22 195 0 196 0 0 -25z m100 21 c0 -2 -7 -9 -15 -16 -12 -10 -15 -10 -15 4 0 9 7 16 15 16 8 0 15 -2 15 -4z"></path><path d="M814 2181 c-67 -29 -84 -118 -35 -173 25 -28 36 -33 76 -33 40 0 51 5 76 33 39 44 40 99 2 142 -30 33 -82 46 -119 31z m64 -73 c17 -17 15 -43 -4 -59 -31 -26 -70 25 -44 56 15 18 32 19 48 3z"></path><path d="M1924 2181 c-67 -29 -84 -118 -35 -173 25 -28 36 -33 76 -33 40 0 51 5 76 33 39 44 40 99 2 142 -30 33 -82 46 -119 31z m64 -73 c17 -17 15 -43 -4 -59 -31 -26 -70 25 -44 56 15 18 32 19 48 3z"></path><path d="M960 2895 c-20 -25 -8 -50 25 -50 21 0 31 5 33 18 4 21 -14 47 -33 47 -7 0 -18 -7 -25 -15z"></path><path d="M1212 2901 c-8 -4 -12 -19 -10 -32 l3 -24 210 0 210 0 3 24 c2 13 -2 28 -10 32 -7 5 -98 9 -203 9 -104 0 -196 -4 -203 -9z"></path><path d="M1820 2895 c-20 -25 -8 -50 25 -50 21 0 31 5 33 18 4 21 -14 47 -33 47 -7 0 -18 -7 -25 -15z"></path><path d="M754 1776 c-3 -8 -4 -23 -2 -33 3 -15 15 -18 83 -21 108 -4 127 1 123 36 l-3 27 -98 3 c-78 2 -98 0 -103 -12z"></path><path d="M1867 1784 c-4 -4 -7 -18 -7 -30 0 -30 22 -36 125 -32 l80 3 0 30 0 30 -95 3 c-53 1 -99 0 -103 -4z"></path></g></svg>