<svg xmlns="http://www.w3.org/2000/svg" width="347.000000pt" height="365.000000pt" viewBox="0 0 347.000000 365.000000" preserveAspectRatio="xMidYMid meet"><g transform="translate(0.000000,365.000000) scale(0.100000,-0.100000)" fill="#000000" stroke="none"><path d="M1432 3485 c-410 -53 -784 -250 -1041 -548 -399 -465 -482 -1096 -213 -1632 175 -352 461 -610 852 -770 154 -62 434 -115 615 -115 181 0 461 53 615 115 259 106 474 257 639 448 399 465 482 1096 213 1632 -175 352 -461 610 -852 770 -161 65 -440 116 -630 114 -52 -1 -141 -7 -198 -14z m378 -75 c332 -40 594 -148 839 -344 266 -213 439 -496 513 -840 31 -143 31 -389 0 -532 -74 -344 -247 -627 -513 -840 -245 -196 -507 -304 -839 -344 -268 -32 -572 18 -835 138 -131 60 -219 114 -334 206 -266 213 -439 496 -513 840 -31 143 -31 389 0 532 58 268 166 483 344 682 202 224 499 398 803 468 176 40 376 53 535 34z"></path><path d="M1254 3120 l-67 -70 -162 0 c-112 0 -165 -4 -173 -12 -8 -8 -12 -55 -12 -144 l0 -133 -52 -3 -53 -3 -3 -72 -3 -73 -32 0 c-48 0 -57 -15 -57 -92 l0 -68 -100 0 c-84 0 -102 -3 -107 -16 -10 -27 11 -49 52 -52 31 -3 54 -17 117 -73 l79 -69 419 0 420 0 0 -75 c0 -63 -3 -77 -17 -81 -82 -26 -167 -93 -179 -140 -5 -20 -12 -24 -45 -24 l-38 0 -3 96 c-2 79 -6 99 -20 108 -13 8 -23 8 -35 0 -15 -9 -19 -29 -21 -108 l-3 -96 -212 2 -212 3 -5 100 -5 100 -30 0 -30 0 -3 -102 -3 -102 -42 -3 c-36 -3 -43 -7 -45 -27 -4 -29 12 -41 56 -41 l33 0 -3 -92 -3 -93 -40 -5 c-33 -4 -41 -9 -43 -29 -4 -29 12 -41 56 -41 l32 0 -2 -227 -3 -228 -40 -5 c-32 -4 -41 -9 -43 -27 -3 -17 2 -23 15 -23 53 0 94 -47 59 -67 -7 -4 -16 -21 -20 -38 -5 -26 -1 -33 29 -52 25 -16 35 -18 35 -9 0 22 50 26 369 26 225 0 310 3 319 12 9 9 12 130 12 482 0 452 1 472 20 504 58 95 189 106 272 22 l38 -38 0 -480 c0 -371 3 -482 13 -490 7 -6 136 -11 352 -12 455 -3 444 -3 452 16 7 18 -12 34 -43 34 -16 0 -23 8 -28 31 -8 39 -3 46 35 54 21 5 29 11 25 22 -3 8 -6 19 -6 24 0 5 -13 9 -30 9 l-30 0 0 230 0 230 34 0 c68 0 78 62 11 70 l-40 5 -3 93 -3 92 28 0 c39 0 55 13 51 41 -2 20 -10 25 -40 27 l-37 3 -3 102 c-3 98 -4 102 -26 105 -43 6 -52 -13 -52 -114 l0 -94 -212 2 -213 3 -5 100 -5 100 -30 0 -30 0 -5 -100 -5 -100 -36 -3 c-32 -3 -37 1 -68 48 -35 54 -92 97 -141 107 l-30 6 0 78 0 78 418 3 418 3 77 68 c62 53 84 67 110 67 41 0 70 20 65 46 -3 17 -14 19 -106 22 l-102 3 0 67 c0 77 -9 92 -57 92 l-33 0 0 59 c0 85 -4 91 -61 91 l-49 0 0 126 c0 69 -5 134 -10 145 -10 18 -23 19 -173 19 l-163 0 -69 70 -69 70 -238 0 -238 0 -66 -70z m536 -35 l34 -35 -262 0 c-144 0 -262 3 -262 7 0 4 12 20 27 35 l27 28 201 0 201 0 34 -35z m408 -212 l-3 -108 -635 0 -635 0 -3 108 -3 107 641 0 641 0 -3 -107z m112 -223 l0 -40 -750 0 -750 0 0 40 0 40 750 0 750 0 0 -40z m90 -155 l0 -45 -840 0 -840 0 0 45 0 45 840 0 840 0 0 -45z m38 -150 l-38 -35 -845 0 -845 0 -38 35 -37 34 920 0 920 0 -37 -34z m-1278 -590 l0 -95 -212 2 -213 3 -3 79 c-2 44 -1 85 2 93 4 10 49 13 216 13 l210 0 0 -95z m150 -325 l0 -420 -35 0 -35 0 0 420 0 420 35 0 35 0 0 -420z m568 3 l-3 -418 -37 -3 -38 -3 0 420 0 421 40 0 40 0 -2 -417z m502 322 l0 -95 -212 2 -213 3 -3 93 -3 92 216 0 215 0 0 -95z m-1220 -395 l0 -230 -212 2 -213 3 -3 228 -2 227 215 0 215 0 0 -230z m1220 0 l0 -230 -212 2 -213 3 -3 228 -2 227 215 0 215 0 0 -230z m-1220 -325 l0 -25 -212 2 c-212 3 -213 3 -216 26 l-3 22 215 0 216 0 0 -25z m1220 0 l0 -25 -212 2 c-212 3 -213 3 -216 26 l-3 22 215 0 216 0 0 -25z"></path><path d="M1060 2895 c-20 -25 -8 -50 25 -50 21 0 31 5 33 18 4 21 -14 47 -33 47 -7 0 -18 -7 -25 -15z"></path><path d="M1330 2895 c-6 -8 -10 -22 -8 -32 3 -17 20 -18 238 -18 224 0 235 1 238 19 8 41 -20 46 -244 46 -173 0 -214 -3 -224 -15z"></path><path d="M2004 2896 c-26 -20 -7 -51 32 -51 32 0 44 26 24 50 -16 19 -31 19 -56 1z"></path><path d="M829 1774 c-9 -11 -10 -20 -2 -32 8 -14 30 -18 108 -20 101 -3 125 4 125 38 0 25 -19 30 -125 30 -72 0 -95 -3 -106 -16z"></path><path d="M2057 1784 c-4 -4 -7 -18 -7 -30 0 -31 22 -36 135 -32 l90 3 0 30 0 30 -106 3 c-58 1 -108 -1 -112 -4z"></path><path d="M900 2183 c-28 -10 -69 -56 -75 -84 -13 -59 49 -129 114 -129 34 0 87 26 105 51 57 82 -46 198 -144 162z m68 -75 c32 -32 -2 -79 -43 -60 -29 13 -33 46 -7 61 23 14 36 13 50 -1z"></path><path d="M2114 2176 c-92 -40 -84 -165 12 -196 76 -25 154 26 154 99 0 46 -23 79 -66 97 -41 17 -60 17 -100 0z m80 -72 c21 -20 20 -27 -5 -50 -15 -14 -24 -16 -37 -8 -22 14 -27 41 -12 59 16 19 35 19 54 -1z"></path></g></svg>