<svg xmlns="http://www.w3.org/2000/svg" width="1000.000000pt" height="1080.000000pt" viewBox="0 0 1000.000000 1080.000000" preserveAspectRatio="xMidYMid meet"><g transform="translate(0.000000,1080.000000) scale(0.100000,-0.100000)" fill="#000000" stroke="none"><path d="M6190 10278 c-19 -12 -36 -22 -37 -23 -1 0 -7 -295 -13 -654 l-11 -654 -68 -76 c-371 -415 -705 -958 -951 -1546 l-67 -160 -647 -3 c-365 -1 -646 -6 -646 -11 0 -17 87 -127 134 -168 61 -54 182 -116 276 -142 69 -19 102 -21 412 -21 367 0 350 3 328 -54 l-10 -26 -329 0 -330 0 -51 -86 c-73 -123 -199 -378 -265 -535 -465 -1105 -637 -2673 -490 -4464 8 -99 18 -204 21 -232 l6 -53 569 0 568 0 7 -35 6 -35 225 0 224 0 -7 35 -6 35 461 0 461 0 0 58 c0 31 7 550 15 1152 8 602 21 1626 29 2275 9 649 18 1339 22 1533 l6 352 -381 0 c-414 0 -393 -3 -371 54 l10 26 368 0 369 0 7 160 c4 89 4 165 1 170 -4 6 -129 10 -316 10 -170 0 -309 4 -309 9 0 12 108 275 164 399 67 150 168 348 249 492 104 183 284 469 297 470 3 0 4 -89 2 -197 -1 -109 -20 -1624 -42 -3368 -21 -1743 -41 -3266 -43 -3382 l-4 -213 297 0 298 0 -4 62 c-3 35 -23 475 -45 978 -21 503 -55 1268 -74 1700 -19 432 -57 1296 -85 1920 -28 624 -66 1488 -85 1919 -19 431 -35 793 -35 805 0 12 31 60 70 106 l69 85 1 76 c0 42 -3 111 -7 153 l-6 77 -68 -67 c-38 -37 -70 -66 -72 -63 -2 2 -16 267 -31 588 -14 322 -28 586 -29 587 -1 2 -18 -7 -37 -18z m180 -1252 c0 -50 -3 -58 -56 -122 -961 -1170 -1492 -2866 -1533 -4899 -16 -833 34 -1631 154 -2435 14 -91 25 -173 25 -182 0 -16 -14 -18 -150 -18 l-149 0 -6 33 c-3 17 -14 109 -25 202 -156 1329 -156 2561 0 3646 208 1446 676 2607 1404 3479 107 128 314 350 327 350 5 0 9 -24 9 -54z m-1536 -2473 c-4 -16 -12 -46 -18 -68 l-12 -40 -292 -3 c-161 -1 -292 0 -292 2 0 2 13 34 30 70 l29 66 281 0 280 0 -6 -27z m1054 -45 l3 -68 -357 0 -356 0 6 23 c4 12 12 43 18 70 l11 47 336 -2 336 -3 3 -67z m-1146 -300 l-17 -63 -313 -3 c-171 -1 -312 -1 -312 2 0 2 7 21 16 42 9 22 20 49 25 62 l9 22 304 0 304 0 -16 -62z m1138 -3 l0 -65 -389 0 -388 0 15 65 16 65 373 0 373 0 0 -65z m-1193 -242 c-3 -5 -10 -34 -17 -65 l-11 -58 -330 0 c-181 0 -329 4 -329 9 0 7 14 52 35 109 3 9 79 12 330 12 180 0 324 -3 322 -7z m1193 -58 l0 -65 -420 0 c-231 0 -420 3 -420 8 1 10 20 94 25 110 3 9 94 12 410 12 l405 0 0 -65z m-1264 -285 c-4 -28 -9 -57 -12 -65 -5 -13 -55 -15 -350 -15 -189 0 -344 3 -344 7 0 4 7 33 16 65 l17 58 340 0 340 0 -7 -50z m1254 -15 l0 -65 -441 -2 -440 -3 6 60 c4 33 9 63 12 68 2 4 197 7 434 7 l429 0 0 -65z m-1300 -252 c0 -10 -3 -42 -6 -70 l-7 -53 -363 0 c-200 0 -364 2 -364 5 0 3 7 35 16 70 l16 65 354 0 c331 0 354 -1 354 -17z m1300 -53 l0 -70 -466 0 -466 0 5 23 c3 12 9 43 12 70 l7 47 454 0 454 0 0 -70z m-1340 -247 c0 -10 -3 -42 -6 -70 l-7 -53 -375 0 -374 0 6 33 c4 17 9 49 13 70 l6 37 368 0 c345 0 369 -1 369 -17z m1338 -12 c2 -13 1 -44 -3 -68 l-6 -43 -476 0 -476 0 7 53 c3 28 6 60 6 70 0 16 27 17 473 15 l472 -3 3 -24z m-1372 -327 c-3 -26 -6 -55 -6 -65 0 -18 -16 -19 -386 -19 l-386 0 6 38 c4 20 9 49 12 65 l6 27 380 0 381 0 -7 -46z m1364 -19 l0 -65 -491 0 -492 0 7 38 c3 20 6 49 6 65 l0 27 485 0 485 0 0 -65z m-1390 -300 l0 -65 -390 0 -390 0 0 43 c0 23 3 52 6 65 l6 22 384 0 384 0 0 -65z m1388 -2 l-3 -68 -492 -2 c-278 -2 -494 1 -497 6 -3 5 -3 36 0 70 l7 61 494 0 494 0 -3 -67z m-1405 -240 c2 -5 2 -36 -1 -70 l-4 -63 -394 0 -394 0 0 24 c0 13 3 44 6 70 l7 46 388 0 c213 0 390 -3 392 -7z m1397 -63 l0 -70 -500 0 -500 0 0 54 c0 95 -51 86 506 86 l494 0 0 -70z m-1404 -277 c-3 -21 -6 -50 -6 -65 l0 -28 -395 0 -395 0 0 65 0 65 401 0 402 0 -7 -37z m1404 -28 l0 -65 -500 0 -500 0 0 65 0 65 500 0 500 0 0 -65z m-1410 -300 l0 -65 -400 0 -400 0 0 65 0 65 400 0 400 0 0 -65z m1410 0 l0 -65 -500 0 -500 0 0 65 0 65 500 0 500 0 0 -65z m-1405 -290 c12 -92 47 -85 -399 -85 l-394 0 -4 66 c-1 36 -1 68 1 70 2 2 181 4 397 4 l393 0 6 -55z m1395 -15 l0 -70 -490 0 -490 0 0 70 0 70 490 0 490 0 0 -70z m-1386 -290 c4 -33 4 -65 1 -70 -4 -6 -151 -10 -399 -10 l-394 0 -4 63 c-3 34 -3 65 -1 70 2 4 181 7 397 7 l393 0 7 -60z m1386 -10 l0 -70 -482 2 -483 3 -3 68 -3 67 486 0 485 0 0 -70z m-1370 -305 l0 -65 -397 2 -398 3 -3 63 -3 62 401 0 400 0 0 -65z m1366 34 c-3 -17 -6 -47 -6 -65 l0 -34 -464 0 -464 0 -6 23 c-3 12 -6 41 -6 65 l0 42 476 0 477 0 -7 -31z m-1346 -303 c0 -18 3 -48 6 -65 l7 -31 -407 0 -406 0 0 65 0 65 400 0 400 0 0 -34z m1340 -31 l0 -65 -450 0 c-352 0 -451 3 -455 13 -2 6 -5 36 -8 65 l-4 52 458 0 459 0 0 -65z m-1316 -252 c3 -10 6 -40 8 -68 l2 -50 -404 0 -405 0 -3 68 -3 67 400 0 c372 0 400 -1 405 -17z m1314 -50 l-3 -68 -431 -3 -431 -2 -7 37 c-3 21 -6 53 -6 71 l0 32 440 0 441 0 -3 -67z m-1285 -240 c2 -5 7 -36 11 -71 l7 -62 -413 2 -413 3 -3 68 -3 67 405 0 c223 0 407 -3 409 -7z m1277 -63 l0 -70 -409 0 -409 0 -9 63 c-5 34 -8 65 -6 70 3 4 191 7 419 7 l414 0 0 -70z"></path><path d="M6448 7153 c-2 -5 -1 -50 2 -102 l5 -95 41 55 c51 66 84 120 84 137 0 13 -126 18 -132 5z"></path><path d="M0 400 l0 -400 5000 0 5000 0 0 400 0 400 -5000 0 -5000 0 0 -400z m2192 123 c23 -20 23 -57 1 -74 -15 -11 -16 -11 -5 1 27 31 11 72 -33 83 -19 4 -19 5 -1 6 11 0 28 -6 38 -16z m-69 -8 c-3 -9 -8 -14 -10 -11 -3 3 -2 9 2 15 9 16 15 13 8 -4z m-1760 -114 c22 -61 43 -108 47 -104 4 4 24 56 45 116 21 59 42 107 47 107 11 0 9 -5 -42 -149 -23 -64 -44 -107 -53 -109 -15 -3 -17 0 -67 143 -15 44 -31 88 -36 99 -5 13 -3 17 6 14 8 -2 32 -55 53 -117z m517 89 c0 -23 4 -30 20 -30 11 0 20 -4 20 -10 0 -5 -10 -10 -21 -10 -20 0 -21 -4 -17 -71 3 -55 8 -74 23 -85 23 -17 14 -29 -13 -15 -11 6 -22 25 -26 42 -10 51 -7 209 4 209 6 0 10 -13 10 -30z m515 16 c25 -11 33 -19 29 -30 -7 -19 -5 -19 -40 -1 -36 18 -55 19 -78 2 -28 -21 -9 -45 49 -62 87 -25 108 -74 54 -127 -29 -29 -33 -30 -90 -25 -68 6 -72 8 -64 29 5 13 12 14 40 5 50 -15 100 1 100 33 0 16 -8 28 -25 36 -87 40 -105 51 -108 67 -14 70 53 106 133 73z m105 -16 c0 -25 4 -30 25 -30 16 0 25 -6 25 -15 0 -9 -9 -15 -25 -15 -24 0 -25 -3 -25 -60 0 -55 2 -62 25 -72 14 -6 25 -15 25 -20 0 -18 -31 -20 -55 -4 -24 16 -25 20 -25 131 0 96 3 115 15 115 10 0 15 -10 15 -30z m482 -32 l3 -62 36 32 c20 18 45 32 55 32 14 0 9 -9 -21 -40 l-39 -40 42 -60 c40 -57 41 -60 20 -60 -16 0 -32 14 -53 45 -16 25 -33 45 -37 45 -5 0 -8 -20 -8 -45 0 -38 -3 -45 -20 -45 -19 0 -20 7 -20 130 0 122 1 130 20 130 16 0 19 -8 22 -62z m193 30 c1 -20 -2 -24 -11 -17 -8 7 -14 6 -17 -3 -3 -7 -6 2 -6 20 -1 27 3 33 17 30 11 -2 17 -13 17 -30z m-44 -35 c13 -16 12 -17 -3 -4 -17 13 -22 21 -14 21 2 0 10 -8 17 -17z m-1502 -19 c12 -15 21 -40 21 -55 0 -29 0 -29 -65 -29 -72 0 -83 -12 -44 -51 17 -17 30 -20 65 -16 43 4 59 -5 28 -17 -45 -17 -106 3 -123 41 -45 98 56 206 118 127z m191 16 c17 -11 10 -13 -40 -10 -47 2 -75 -28 -75 -80 0 -55 26 -80 82 -80 27 0 42 -4 38 -10 -9 -15 -78 -12 -102 5 -50 35 -50 135 0 170 24 17 74 20 97 5z m265 -13 c20 -16 28 -35 32 -69 5 -42 3 -50 -25 -78 -41 -41 -83 -41 -124 0 -28 28 -30 36 -25 78 9 82 84 119 142 69z m85 7 c0 -14 2 -14 22 0 24 17 38 20 38 9 0 -5 -14 -16 -30 -25 -29 -17 -30 -19 -30 -93 0 -43 -4 -75 -10 -75 -6 0 -10 40 -10 100 0 60 4 100 10 100 6 0 10 -7 10 -16z m537 1 c30 -21 44 -75 32 -120 -25 -88 -143 -88 -168 0 -20 72 20 135 84 135 17 0 40 -7 52 -15z m198 -5 c0 -10 -8 -14 -27 -12 -58 6 -91 -42 -67 -100 11 -28 36 -40 74 -35 12 1 20 -4 20 -13 0 -19 -48 -25 -85 -10 -63 26 -68 148 -6 179 31 15 91 9 91 -9z m5364 -83 c8 -26 17 -47 21 -47 4 0 13 21 21 47 8 25 20 48 26 50 13 5 -22 -113 -38 -131 -12 -14 -18 -5 -45 69 -16 44 -20 65 -12 63 7 -3 19 -26 27 -51z m638 38 c2 -6 -9 -11 -23 -10 -39 0 -42 -23 -5 -36 34 -12 49 -43 31 -64 -13 -16 -38 -19 -64 -9 -27 10 -18 22 17 20 38 -1 43 19 8 37 -36 18 -48 42 -31 62 14 17 61 17 67 0z m333 -20 c0 -35 16 -47 26 -20 4 8 13 15 22 15 13 0 13 -3 -2 -19 -16 -18 -16 -21 -1 -50 19 -38 8 -40 -22 -3 l-22 27 -1 -27 c0 -16 -4 -28 -10 -28 -6 0 -10 30 -10 70 0 40 4 70 10 70 6 0 10 -16 10 -35z m580 32 c0 -4 -34 -104 -45 -136 -3 -8 -8 -11 -11 -8 -8 7 38 147 48 147 4 0 8 -2 8 -3z m70 -57 c0 -33 4 -60 10 -60 6 0 10 -4 10 -10 0 -5 -13 -10 -30 -10 -16 0 -30 5 -30 10 0 6 5 10 10 10 6 0 10 20 10 45 0 38 -2 43 -17 38 -16 -6 -16 -4 1 15 29 34 36 27 36 -38z m118 48 c21 -21 13 -45 -25 -77 l-38 -30 43 -1 c23 0 42 -4 42 -10 0 -5 -22 -10 -50 -10 -62 0 -65 15 -14 63 42 40 39 62 -8 53 -26 -5 -29 -4 -18 9 15 18 51 20 68 3z m116 -10 c44 -63 -17 -154 -68 -102 -9 9 -16 32 -16 54 0 64 52 94 84 48z m116 3 c-5 -11 -15 -23 -21 -26 -6 -5 -2 -13 11 -22 42 -29 8 -82 -43 -69 -37 9 -34 27 3 20 22 -5 31 -2 36 11 6 16 -3 28 -31 39 -6 2 -5 9 3 17 18 19 15 29 -8 29 -11 0 -20 5 -20 10 0 6 18 10 40 10 37 0 40 -2 30 -19z m112 -33 c2 -29 2 -61 0 -70 -5 -22 -22 -24 -22 -3 0 10 -10 15 -30 15 -16 0 -30 3 -30 6 0 16 56 104 67 104 6 0 13 -22 15 -52z m122 30 c44 -63 -17 -154 -68 -102 -9 9 -16 32 -16 54 0 64 52 94 84 48z m116 12 c0 -5 -11 -10 -25 -10 -32 0 -32 -16 -1 -24 27 -7 41 -35 31 -65 -7 -23 -37 -35 -65 -26 -31 10 -24 23 13 21 28 -1 32 2 32 24 0 21 -4 25 -30 24 -29 -1 -30 0 -27 32 4 31 7 34 38 34 19 0 34 -4 34 -10z m110 0 c0 -5 -11 -10 -25 -10 -32 0 -32 -16 -1 -24 27 -7 41 -35 31 -65 -7 -23 -37 -35 -65 -26 -31 10 -24 23 13 21 28 -1 32 2 32 24 0 21 -4 25 -30 24 -29 -1 -30 0 -27 32 4 31 7 34 38 34 19 0 34 -4 34 -10z m-2089 -48 c-15 -5 -14 -59 2 -65 6 -2 9 -7 6 -11 -15 -17 -37 8 -41 47 -6 59 0 72 24 50 11 -10 15 -19 9 -21z m359 13 c9 -10 9 -15 1 -15 -15 0 -14 -57 2 -63 6 -2 9 -8 4 -13 -19 -20 -43 38 -38 94 1 16 16 15 31 -3z m-532 -7 c23 -23 13 -38 -24 -38 -46 0 -41 -23 7 -30 27 -4 30 -7 16 -13 -28 -11 -44 -9 -61 9 -32 31 -14 84 29 84 12 0 26 -5 33 -12z m109 5 c14 -6 10 -9 -17 -13 -29 -4 -35 -9 -35 -30 0 -21 5 -26 33 -28 36 -4 34 -22 -3 -22 -28 0 -55 24 -55 50 0 22 25 50 45 50 7 0 22 -3 32 -7z m177 -9 c21 -20 20 -43 -1 -66 -20 -22 -46 -23 -67 -2 -31 30 -9 84 34 84 10 0 26 -7 34 -16z m86 6 c0 -4 -7 -10 -15 -14 -9 -3 -15 -19 -15 -41 0 -19 -4 -35 -10 -35 -5 0 -10 22 -10 49 0 45 2 49 25 49 14 0 25 -4 25 -8z m274 -6 c21 -20 20 -43 -1 -66 -20 -22 -46 -23 -67 -2 -31 30 -9 84 34 84 10 0 26 -7 34 -16z m113 9 c14 -6 10 -9 -17 -13 -29 -4 -35 -9 -35 -30 0 -21 5 -26 33 -28 36 -4 34 -22 -3 -22 -28 0 -55 24 -55 50 0 22 25 50 45 50 7 0 22 -3 32 -7z m250 0 c14 -6 10 -9 -17 -13 -29 -4 -35 -9 -35 -30 0 -21 5 -26 33 -28 36 -4 34 -22 -3 -22 -28 0 -55 24 -55 50 0 22 25 50 45 50 7 0 22 -3 32 -7z m107 -9 c21 -20 20 -43 -1 -66 -20 -22 -46 -23 -67 -2 -31 30 -9 84 34 84 10 0 26 -7 34 -16z m116 4 c0 -9 3 -9 12 0 17 17 45 15 52 -4 10 -25 7 -84 -4 -84 -5 0 -10 18 -10 41 0 33 -3 40 -17 37 -13 -2 -19 -14 -21 -41 -4 -50 -22 -47 -22 4 0 36 -2 40 -22 37 -19 -2 -24 -10 -26 -40 -5 -55 -22 -46 -22 10 l0 49 40 1 c25 1 40 -3 40 -10z m-330 -78 c0 -5 -4 -10 -10 -10 -5 0 -10 5 -10 10 0 6 5 10 10 10 6 0 10 -4 10 -10z"></path><path d="M2150 500 c0 -5 5 -10 10 -10 6 0 10 5 10 10 0 6 -4 10 -10 10 -5 0 -10 -4 -10 -10z"></path><path d="M536 418 c-28 -39 -21 -48 39 -48 59 0 67 9 45 51 -15 27 -64 25 -84 -3z"></path><path d="M986 424 c-50 -50 -21 -144 44 -144 48 0 80 50 66 104 -13 53 -75 75 -110 40z"></path><path d="M1616 408 c-32 -46 -8 -118 39 -118 28 0 55 34 55 70 0 36 -27 70 -55 70 -13 0 -31 -10 -39 -22z"></path><path d="M9064 365 c-9 -38 3 -75 26 -75 13 0 22 9 26 25 9 38 -3 75 -26 75 -13 0 -22 -9 -26 -25z"></path><path d="M9307 350 c-18 -29 -18 -30 2 -30 17 0 21 6 21 30 0 17 -1 30 -3 30 -1 0 -11 -13 -20 -30z"></path><path d="M9414 365 c-9 -38 3 -75 26 -75 13 0 22 9 26 25 9 38 -3 75 -26 75 -13 0 -22 -9 -26 -25z"></path><path d="M7385 340 c-4 -6 5 -10 19 -10 14 0 26 5 26 10 0 6 -9 10 -19 10 -11 0 -23 -4 -26 -10z"></path><path d="M7664 336 c-10 -26 4 -48 28 -44 17 2 23 10 23 28 0 18 -6 26 -23 28 -13 2 -25 -3 -28 -12z"></path><path d="M8024 336 c-10 -26 4 -48 28 -44 17 2 23 10 23 28 0 18 -6 26 -23 28 -13 2 -25 -3 -28 -12z"></path><path d="M8494 336 c-10 -26 4 -48 28 -44 17 2 23 10 23 28 0 18 -6 26 -23 28 -13 2 -25 -3 -28 -12z"></path></g></svg>