<svg xmlns="http://www.w3.org/2000/svg" width="1000.000000pt" height="999.000000pt" viewBox="0 0 1000.000000 999.000000" preserveAspectRatio="xMidYMid meet"><g transform="translate(0.000000,999.000000) scale(0.100000,-0.100000)" fill="#000000" stroke="none"><path d="M4960 9758 c-261 -18 -600 -102 -875 -216 -274 -114 -609 -325 -874 -552 -230 -196 -544 -557 -711 -815 -253 -392 -392 -664 -539 -1055 -203 -539 -309 -996 -378 -1635 -23 -215 -25 -279 -25 -625 0 -346 2 -410 25 -625 69 -639 175 -1096 378 -1635 147 -391 286 -663 539 -1055 167 -258 481 -619 711 -815 366 -313 782 -546 1179 -660 245 -71 239 -70 770 -70 531 0 525 -1 770 70 397 114 813 347 1179 660 230 196 544 557 711 815 253 392 392 664 539 1055 203 539 309 996 378 1635 23 215 25 279 25 625 0 346 -2 410 -25 625 -69 639 -175 1096 -378 1635 -147 391 -286 663 -539 1055 -167 258 -481 619 -711 815 -265 227 -600 438 -874 552 -287 119 -613 198 -903 218 -170 11 -192 11 -372 -2z m355 -278 c77 -6 201 -22 275 -36 208 -40 507 -132 547 -168 8 -8 9 -151 2 -575 l-10 -564 -67 -76 c-372 -415 -706 -958 -952 -1546 l-67 -160 -647 -3 c-365 -1 -646 -6 -646 -11 0 -17 87 -127 134 -168 61 -54 182 -116 276 -142 69 -19 102 -21 412 -21 367 0 350 3 328 -54 l-10 -26 -329 0 -330 0 -55 -93 c-30 -51 -95 -174 -143 -273 -506 -1025 -722 -2438 -642 -4184 6 -124 14 -274 19 -335 5 -60 7 -112 4 -114 -15 -16 -274 249 -471 484 -182 216 -438 631 -574 931 -279 613 -434 1207 -510 1944 -31 309 -31 831 0 1140 76 737 231 1331 510 1944 133 293 391 714 565 921 342 407 604 634 991 857 351 202 783 322 1210 336 22 1 103 -3 180 -8z m1078 -327 c391 -226 651 -451 993 -858 174 -207 432 -628 565 -921 222 -488 373 -991 454 -1509 62 -400 78 -605 78 -1005 0 -294 -4 -392 -22 -570 -62 -608 -169 -1077 -362 -1587 -141 -374 -272 -630 -512 -1003 -215 -332 -590 -730 -879 -930 l-86 -60 -6 103 c-4 56 -34 716 -66 1467 -70 1596 -151 3412 -220 4969 -16 371 -30 684 -30 695 0 12 31 60 70 106 l69 85 1 76 c0 42 -3 111 -7 153 l-6 77 -68 -67 c-38 -37 -70 -66 -72 -63 -3 2 -12 180 -21 394 -9 215 -19 420 -22 458 -4 46 -3 67 5 67 6 0 71 -34 144 -77z m-23 -937 c0 -50 -3 -58 -56 -122 -839 -1022 -1351 -2444 -1494 -4151 -32 -381 -40 -609 -40 -1068 0 -737 45 -1365 150 -2080 17 -110 30 -208 30 -217 0 -16 -14 -18 -150 -18 l-149 0 -6 33 c-3 17 -14 109 -25 202 -156 1329 -156 2561 0 3646 208 1446 676 2607 1404 3479 107 128 314 350 327 350 5 0 9 -24 9 -54z m-248 -693 c-1 -109 -20 -1624 -42 -3368 -21 -1743 -41 -3266 -43 -3383 l-5 -212 172 0 171 0 -47 -30 c-77 -48 -302 -139 -458 -185 -493 -146 -927 -146 -1420 0 -156 46 -381 137 -458 185 l-47 30 322 0 322 0 7 -35 6 -35 225 0 224 0 -7 35 -6 35 461 0 461 0 0 58 c0 31 7 550 15 1152 8 602 21 1626 30 2275 8 649 17 1339 21 1533 l6 352 -381 0 c-414 0 -393 -3 -371 54 l10 26 368 0 369 0 7 160 c4 89 4 165 1 170 -4 6 -129 10 -316 10 -170 0 -309 4 -309 9 0 12 108 275 164 399 107 238 254 512 386 722 96 152 154 240 160 240 3 0 4 -89 2 -197z m-1288 -1780 c-4 -16 -12 -46 -18 -68 l-12 -40 -292 -3 c-161 -1 -292 0 -292 2 0 2 13 34 30 70 l29 66 281 0 280 0 -6 -27z m1054 -45 l3 -68 -357 0 -356 0 6 23 c4 12 12 43 18 70 l11 47 336 -2 336 -3 3 -67z m-1146 -300 l-17 -63 -313 -3 c-171 -1 -312 -1 -312 2 0 2 7 21 16 42 9 22 20 49 25 62 l9 22 304 0 304 0 -16 -62z m1138 -3 l0 -65 -389 0 -388 0 15 65 16 65 373 0 373 0 0 -65z m-1193 -242 c-3 -5 -10 -34 -17 -65 l-11 -58 -330 0 c-181 0 -329 4 -329 9 0 7 14 52 35 109 3 9 79 12 330 12 180 0 324 -3 322 -7z m1193 -58 l0 -65 -420 0 c-231 0 -420 3 -420 8 1 10 20 94 25 110 3 9 94 12 410 12 l405 0 0 -65z m-1264 -285 c-4 -28 -9 -57 -12 -65 -5 -13 -55 -15 -350 -15 -189 0 -344 3 -344 7 0 4 7 33 16 65 l17 58 340 0 340 0 -7 -50z m1254 -15 l0 -65 -441 -2 -440 -3 6 60 c4 33 9 63 12 68 2 4 197 7 434 7 l429 0 0 -65z m-1300 -252 c0 -10 -3 -42 -6 -70 l-7 -53 -363 0 c-200 0 -364 2 -364 5 0 3 7 35 16 70 l16 65 354 0 c331 0 354 -1 354 -17z m1300 -53 l0 -70 -466 0 -466 0 5 23 c3 12 9 43 12 70 l7 47 454 0 454 0 0 -70z m-1340 -247 c0 -10 -3 -42 -6 -70 l-7 -53 -375 0 -374 0 6 33 c4 17 9 49 13 70 l6 37 368 0 c345 0 369 -1 369 -17z m1338 -12 c2 -13 1 -44 -3 -68 l-6 -43 -476 0 -476 0 7 53 c3 28 6 60 6 70 0 16 27 17 473 15 l472 -3 3 -24z m-1372 -327 c-3 -26 -6 -55 -6 -65 0 -18 -16 -19 -386 -19 l-386 0 6 38 c4 20 9 49 12 65 l6 27 380 0 381 0 -7 -46z m1364 -19 l0 -65 -491 0 -492 0 7 38 c3 20 6 49 6 65 l0 27 485 0 485 0 0 -65z m-1390 -300 l0 -65 -390 0 -390 0 0 43 c0 23 3 52 6 65 l6 22 384 0 384 0 0 -65z m1388 -2 l-3 -68 -489 -3 c-270 -1 -493 1 -498 6 -4 4 -5 36 -2 70 l7 62 494 0 494 0 -3 -67z m-1402 -264 c-3 -17 -6 -49 -6 -70 l0 -39 -395 0 -395 0 0 24 c0 13 3 44 6 70 l7 46 395 0 395 0 -7 -31z m1394 -39 l0 -70 -500 0 -500 0 0 54 c0 95 -51 86 506 86 l494 0 0 -70z m-1404 -277 c-3 -21 -6 -50 -6 -65 l0 -28 -395 0 -395 0 0 65 0 65 401 0 402 0 -7 -37z m1404 -28 l0 -65 -500 0 -500 0 0 65 0 65 500 0 500 0 0 -65z m-1410 -300 l0 -65 -400 0 -400 0 0 65 0 65 400 0 400 0 0 -65z m1410 0 l0 -65 -500 0 -500 0 0 65 0 65 500 0 500 0 0 -65z m-1405 -290 c12 -92 47 -85 -399 -85 l-394 0 -4 66 c-1 36 -1 68 1 70 2 2 181 4 397 4 l393 0 6 -55z m1395 -15 l0 -70 -490 0 -490 0 0 70 0 70 490 0 490 0 0 -70z m-1386 -290 c4 -33 4 -65 1 -70 -4 -6 -151 -10 -399 -10 l-394 0 -4 63 c-3 34 -3 65 -1 70 2 4 181 7 397 7 l393 0 7 -60z m1386 -10 l0 -70 -482 2 -483 3 -3 68 -3 67 486 0 485 0 0 -70z m-1370 -305 l0 -65 -397 2 -398 3 -3 63 -3 62 401 0 400 0 0 -65z m1366 34 c-3 -17 -6 -47 -6 -65 l0 -34 -464 0 -464 0 -6 23 c-3 12 -6 41 -6 65 l0 42 476 0 477 0 -7 -31z m-1346 -303 c0 -18 3 -48 6 -65 l7 -31 -407 0 -406 0 0 65 0 65 400 0 400 0 0 -34z m1340 -31 l0 -65 -450 0 c-352 0 -451 3 -455 13 -2 6 -5 36 -8 65 l-4 52 458 0 459 0 0 -65z m-1316 -252 c3 -10 6 -40 8 -68 l2 -50 -404 0 -405 0 -3 68 -3 67 400 0 c372 0 400 -1 405 -17z m1314 -50 l-3 -68 -431 -3 -431 -2 -7 37 c-3 21 -6 53 -6 71 l0 32 440 0 441 0 -3 -67z m-1285 -240 c2 -5 7 -36 11 -71 l7 -62 -413 2 -413 3 -3 68 -3 67 405 0 c223 0 407 -3 409 -7z m1277 -63 l0 -70 -409 0 -409 0 -9 63 c-5 34 -8 65 -6 70 3 4 191 7 419 7 l414 0 0 -70z"></path><path d="M6448 6343 c-2 -5 -1 -51 2 -103 l5 -95 48 65 c27 35 58 81 68 102 l19 38 -69 0 c-38 0 -71 -3 -73 -7z"></path></g></svg>