<svg xmlns="http://www.w3.org/2000/svg" width="1920.000000pt" height="1280.000000pt" viewBox="0 0 1920.000000 1280.000000" preserveAspectRatio="xMidYMid meet"><g transform="translate(0.000000,1280.000000) scale(0.100000,-0.100000)" fill="#000000" stroke="none"><path d="M9350 9644 c-25 -2 -106 -8 -180 -14 -74 -7 -213 -25 -308 -41 -758 -126 -1446 -445 -2047 -948 -116 -97 -399 -380 -496 -496 -567 -678 -903 -1475 -990 -2350 -17 -167 -17 -633 0 -800 90 -903 451 -1741 1037 -2405 103 -117 309 -322 424 -422 377 -327 853 -605 1342 -781 671 -243 1446 -308 2168 -182 741 130 1424 449 2015 944 116 97 399 380 496 496 567 678 903 1475 990 2350 17 167 17 633 0 800 -87 875 -423 1672 -990 2350 -97 116 -380 399 -496 496 -666 558 -1448 892 -2301 984 -133 15 -569 27 -664 19z m669 -2759 l31 -36 0 -229 c0 -147 4 -230 10 -230 6 0 10 7 10 15 0 13 30 15 214 15 184 0 215 2 227 16 18 22 59 36 86 29 23 -5 23 -8 23 -145 l0 -140 -42 0 c-24 0 -50 -5 -58 -10 -10 -7 10 -10 67 -10 74 0 82 -2 88 -21 5 -13 -2 -33 -19 -59 l-26 -40 0 -243 0 -244 30 -44 c37 -55 41 -110 8 -133 -19 -14 -65 -16 -298 -16 -152 0 -282 4 -290 10 -13 8 -13 15 0 57 8 26 16 81 18 121 5 95 -16 156 -75 222 -60 67 -129 102 -215 108 -59 4 -75 1 -122 -22 -31 -15 -76 -47 -101 -71 l-45 -45 -36 40 c-20 22 -65 54 -100 71 -58 29 -71 31 -131 27 -86 -6 -155 -40 -214 -106 -76 -85 -98 -197 -63 -324 26 -92 38 -88 -285 -88 -312 0 -321 2 -321 66 0 27 9 45 44 82 25 27 50 60 55 76 7 16 11 110 11 221 0 189 1 194 22 209 12 9 39 16 60 16 20 0 40 5 43 10 4 6 -17 10 -57 10 -73 0 -108 15 -126 52 -19 41 -7 58 44 58 24 0 44 5 44 10 0 6 -7 10 -15 10 -13 0 -15 20 -13 143 l3 142 30 3 c20 2 44 -6 68 -23 37 -25 41 -25 220 -25 197 0 207 -3 207 -51 0 -15 3 -34 6 -43 19 -48 24 9 24 253 l0 269 26 31 c30 35 68 40 99 13 52 -46 60 -63 65 -141 l5 -76 285 -5 c157 -3 286 -7 286 -8 1 -1 4 -23 7 -48 2 -25 10 -51 16 -57 8 -8 11 28 11 136 l0 147 36 40 c47 52 80 53 123 5z m-513 -1364 c32 -19 32 -19 72 0 37 18 43 19 75 5 41 -17 59 -45 59 -92 0 -52 -45 -111 -149 -198 -22 -19 -23 -18 -69 19 -25 21 -63 60 -85 87 -31 40 -39 58 -39 91 0 47 22 81 60 96 35 14 41 13 76 -8z m-2384 -422 c13 -6 69 -64 126 -128 56 -64 126 -142 155 -175 l53 -59 161 180 c103 115 171 183 188 187 33 8 83 -18 95 -50 14 -35 13 -805 0 -840 -6 -15 -18 -33 -28 -40 -25 -19 -76 -17 -103 5 l-24 19 -5 300 -5 300 -114 -133 c-125 -147 -150 -164 -200 -137 -17 9 -116 117 -221 239 -164 192 -190 227 -190 256 0 36 13 58 45 75 26 14 39 15 67 1z m1137 -4 c16 -8 31 -22 35 -30 3 -9 6 -137 6 -284 0 -148 5 -293 10 -322 21 -112 105 -180 204 -165 55 9 98 42 129 100 21 39 22 55 27 352 5 284 7 314 23 332 10 11 29 23 43 26 32 8 82 -18 89 -47 3 -12 5 -169 3 -347 l-3 -325 -29 -63 c-36 -78 -115 -153 -185 -177 -55 -18 -177 -21 -229 -6 -84 25 -152 83 -194 165 -43 84 -48 126 -48 441 0 324 2 334 54 355 29 12 33 12 65 -5z m928 9 c13 -4 96 -87 184 -186 156 -173 162 -179 179 -161 10 10 80 88 155 173 76 85 149 161 163 168 29 17 65 9 92 -20 19 -21 20 -34 20 -445 l0 -424 -25 -24 c-32 -33 -83 -34 -113 -2 -21 22 -22 31 -24 321 l-3 298 -96 -114 c-148 -173 -142 -168 -188 -168 -40 0 -41 1 -232 223 -105 122 -198 236 -206 253 -13 27 -13 35 -2 60 8 16 25 34 39 41 29 15 28 15 57 7z m1491 -23 c62 -28 123 -93 140 -149 18 -58 14 -141 -7 -188 -10 -23 -23 -44 -29 -48 -6 -3 15 -32 47 -64 66 -66 84 -113 83 -212 -2 -126 -92 -247 -211 -282 -31 -9 -104 -13 -219 -13 l-174 0 -24 28 -24 28 0 432 c0 467 0 465 54 488 11 5 86 8 166 6 126 -3 152 -6 198 -26z m1417 -2 c19 -19 20 -35 23 -442 1 -232 0 -432 -3 -445 -14 -58 -88 -82 -136 -43 l-24 19 -3 437 c-2 386 -1 440 13 462 31 46 90 52 130 12z m-647 3 c25 -25 352 -845 352 -883 0 -57 -65 -93 -118 -65 -23 12 -37 33 -65 103 l-35 88 -188 0 -188 0 -36 -84 c-42 -101 -72 -129 -122 -115 -22 7 -39 21 -52 44 l-18 35 172 432 c120 303 178 437 193 448 30 21 83 19 105 -3z m-4352 -384 c73 -67 74 -72 74 -293 0 -195 0 -196 -25 -220 -31 -32 -80 -33 -112 -3 -23 21 -23 23 -23 283 0 144 3 265 7 268 14 15 35 5 79 -35z m2079 1 c70 -64 77 -94 73 -313 -3 -184 -4 -188 -27 -207 -13 -10 -36 -19 -51 -19 -84 0 -90 19 -90 309 0 132 3 246 6 255 10 27 42 18 89 -25z"></path><path d="M10430 4614 l0 -326 114 3 c97 4 119 7 143 25 65 47 77 128 33 213 -25 49 -44 61 -83 50 -61 -17 -127 22 -127 76 0 31 33 70 72 85 71 28 102 83 78 141 -19 44 -56 59 -150 59 l-80 0 0 -326z"></path><path d="M11383 4774 c-4 -10 -30 -77 -59 -149 l-52 -130 115 -3 c64 -1 118 0 121 2 4 5 -104 285 -114 295 -2 2 -7 -5 -11 -15z"></path></g></svg>