<svg xmlns="http://www.w3.org/2000/svg" width="1024.000000pt" height="1024.000000pt" viewBox="0 0 1024.000000 1024.000000" preserveAspectRatio="xMidYMid meet"><g transform="translate(0.000000,1024.000000) scale(0.100000,-0.100000)" fill="#000000" stroke="none"><path d="M4870 9704 c-356 -31 -653 -91 -952 -193 -922 -315 -1692 -987 -2126 -1857 -267 -533 -392 -1059 -394 -1649 -1 -244 11 -401 43 -605 188 -1180 931 -2196 2005 -2741 393 -199 774 -314 1239 -376 188 -25 677 -24 870 0 865 112 1615 480 2213 1085 781 792 1163 1860 1061 2967 -119 1294 -922 2444 -2101 3009 -372 179 -731 284 -1170 342 -108 14 -588 27 -688 18z m618 -230 c666 -71 1257 -312 1807 -735 147 -114 426 -392 556 -554 192 -240 302 -414 434 -688 89 -185 130 -290 189 -478 287 -929 175 -1930 -312 -2781 l-67 -118 -192 0 -193 0 0 730 c0 443 4 730 9 730 14 0 111 142 111 163 0 9 7 17 15 17 16 0 67 69 59 82 -3 4 -46 8 -96 8 -78 0 -89 2 -78 15 16 19 4 35 -26 35 l-24 0 0 138 0 138 35 34 c19 19 35 39 35 45 0 7 -18 17 -41 24 -45 14 -61 38 -36 56 23 16 21 23 -5 27 -19 2 -24 10 -26 46 l-3 42 -685 0 -684 0 0 203 0 204 25 23 c30 28 31 37 5 45 -11 3 -20 13 -20 22 0 9 -8 22 -17 29 -16 11 -18 36 -21 214 -3 195 -3 203 17 222 22 20 20 38 -5 38 -9 0 -14 11 -14 30 0 17 -4 30 -9 30 -5 0 -13 25 -16 55 -4 30 -11 58 -16 61 -5 3 -9 16 -9 29 0 17 -8 26 -30 33 -28 10 -29 12 -23 60 5 43 3 51 -16 64 -12 9 -26 29 -31 44 -8 27 -8 27 -9 5 -1 -13 -13 -35 -27 -48 -23 -21 -25 -29 -19 -69 6 -43 5 -45 -24 -55 -27 -9 -30 -16 -37 -65 -3 -30 -10 -57 -15 -60 -5 -3 -9 -16 -9 -30 0 -13 -4 -24 -10 -24 -5 0 -10 -13 -10 -30 0 -20 -5 -30 -15 -30 -8 0 -15 -6 -15 -14 0 -7 7 -19 15 -26 12 -10 15 -41 15 -161 l0 -149 -387 0 c-346 0 -388 2 -405 17 -17 15 -18 44 -18 505 0 319 -3 488 -10 488 -7 0 -10 -168 -10 -483 0 -421 -2 -485 -16 -505 l-15 -22 -395 0 -394 0 0 147 c0 125 3 149 17 166 17 18 17 19 0 32 -9 6 -17 24 -17 39 0 14 -4 26 -10 26 -5 0 -10 11 -10 24 0 14 -4 27 -9 30 -5 3 -12 30 -15 60 -7 49 -10 56 -37 65 -29 10 -30 12 -24 54 6 39 4 46 -18 64 -14 11 -27 33 -29 49 l-4 29 -9 -30 c-4 -16 -17 -36 -28 -44 -16 -12 -19 -22 -14 -61 6 -46 4 -49 -24 -60 -20 -9 -29 -19 -29 -36 0 -12 -4 -25 -9 -28 -5 -3 -12 -30 -15 -60 -5 -33 -13 -57 -22 -60 -8 -3 -14 -15 -14 -27 0 -12 -8 -28 -17 -35 -17 -12 -17 -14 5 -34 23 -22 23 -24 20 -222 -3 -177 -5 -201 -20 -209 -10 -6 -18 -18 -18 -29 0 -10 -9 -22 -20 -25 -26 -8 -25 -17 5 -45 l25 -23 0 -204 0 -203 -684 0 c-663 0 -685 -1 -691 -19 -3 -10 -5 -23 -4 -27 5 -28 -3 -44 -21 -44 -11 0 -20 -4 -20 -10 0 -5 5 -10 10 -10 6 0 10 -11 10 -23 0 -19 -8 -26 -40 -36 -22 -6 -40 -17 -40 -24 0 -7 15 -27 32 -45 l33 -31 0 -138 0 -137 -25 -6 c-18 -5 -24 -12 -23 -28 3 -21 -1 -22 -82 -22 -46 0 -86 -4 -89 -8 -6 -11 41 -82 55 -82 5 0 14 -11 19 -25 14 -38 89 -145 106 -152 12 -4 14 -113 14 -734 l0 -729 -177 2 -178 3 -48 80 c-437 734 -588 1634 -415 2480 191 936 760 1757 1577 2275 446 283 997 469 1541 520 220 20 467 18 688 -6z m-1350 -1683 c21 -13 10 -46 -16 -49 -27 -4 -40 22 -22 43 14 17 20 18 38 6z m1976 -16 c7 -19 -21 -46 -39 -39 -18 7 -20 51 -2 57 17 6 34 -2 41 -18z m-1981 -72 c-7 -2 -19 -2 -25 0 -7 3 -2 5 12 5 14 0 19 -2 13 -5z m1964 1 c-3 -3 -12 -4 -19 -1 -8 3 -5 6 6 6 11 1 17 -2 13 -5z m51 -39 c31 -12 5 -20 -63 -20 -46 0 -74 4 -72 10 7 19 94 25 135 10z m-1964 -1 c34 -13 13 -19 -64 -19 -74 0 -97 6 -67 18 18 8 113 8 131 1z m10 -54 c47 -18 27 -25 -69 -25 -66 0 -95 4 -95 12 0 6 8 14 18 16 32 9 121 7 146 -3z m1967 0 c36 -20 19 -25 -76 -25 -52 0 -95 4 -95 8 0 24 133 37 171 17z m-1953 -56 c12 -4 22 -13 22 -21 0 -10 -6 -12 -22 -7 -26 8 -163 8 -177 -1 -5 -3 -12 -1 -16 5 -3 6 4 14 17 19 26 11 142 14 176 5z m1963 -4 c36 -20 19 -26 -58 -19 -43 3 -90 3 -105 -2 -21 -6 -28 -4 -28 6 0 7 8 16 18 18 34 9 154 7 173 -3z m-1960 -52 c75 -22 45 -33 -91 -33 -76 0 -129 4 -127 9 10 31 147 46 218 24z m1969 0 c22 -7 39 -17 37 -21 -4 -13 -257 -14 -257 -1 0 29 148 44 220 22z m-1937 -61 c24 -10 4 -12 -122 -12 -83 0 -151 1 -151 2 0 1 15 7 33 12 46 13 207 12 240 -2z m1960 0 c24 -10 5 -12 -118 -12 -123 0 -142 2 -118 12 15 7 69 12 118 12 50 0 103 -5 118 -12z m-2023 -207 l0 -180 -55 0 -55 0 0 180 0 180 55 0 55 0 0 -180z m1960 0 l0 -180 -55 0 -55 0 0 180 0 180 55 0 55 0 0 -180z m-2100 -5 c0 -164 -1 -175 -20 -185 -20 -10 -20 -7 -21 127 -2 148 0 214 8 226 2 4 11 7 19 7 12 0 14 -29 14 -175z m194 169 c14 -5 16 -31 16 -184 0 -173 -1 -178 -20 -173 -19 5 -20 14 -20 184 0 99 2 179 4 179 2 0 11 -3 20 -6z m1766 -173 c0 -170 -1 -179 -20 -184 -19 -5 -20 0 -20 173 0 176 2 186 33 189 4 1 7 -79 7 -178z m208 -8 c2 -178 2 -181 -18 -176 -19 5 -20 13 -20 185 0 166 1 179 18 176 15 -3 17 -21 20 -185z m-1079 -127 c7 -9 11 -38 9 -73 -3 -54 -5 -58 -28 -58 -23 0 -25 4 -28 58 -3 54 8 87 28 87 4 0 13 -6 19 -14z m-71 -73 l-3 -58 -366 -3 c-351 -2 -366 -1 -383 17 -10 11 -20 38 -23 60 l-6 41 392 0 392 0 -3 -57z m869 16 c-3 -22 -13 -49 -23 -60 -17 -18 -32 -19 -378 -17 l-361 3 -3 58 -3 57 387 0 387 0 -6 -41z m-1697 -22 l35 -17 -35 8 c-47 10 -178 9 -215 -1 -43 -12 -19 9 25 22 48 14 148 8 190 -12z m1960 -1 c19 -9 26 -14 16 -11 -47 13 -164 17 -205 6 -57 -16 -64 -7 -9 12 53 19 150 16 198 -7z m-1932 -47 c31 -13 21 -14 -132 -14 -91 0 -162 3 -158 7 30 29 229 34 290 7z m1936 9 c22 -6 44 -14 48 -17 4 -3 -67 -6 -157 -6 -90 0 -162 1 -161 2 1 2 20 9 42 17 48 18 172 20 228 4z m-1933 -49 c19 -7 37 -14 41 -18 4 -3 -66 -6 -155 -6 -89 0 -171 -2 -181 -5 -34 -9 -28 17 6 27 45 15 247 16 289 2z m1599 -4 c-11 -13 -107 -15 -755 -15 -648 0 -744 2 -755 15 -11 13 74 15 755 15 681 0 766 -2 755 -15z m366 4 c25 -7 43 -17 41 -23 -2 -6 -13 -9 -23 -6 -10 3 -92 5 -181 5 -89 0 -159 2 -156 5 27 28 233 40 319 19z m-2213 -446 c-41 -31 -43 -23 -43 186 l0 199 28 10 27 9 3 -196 c2 -175 1 -197 -15 -208z m187 207 l0 -200 -23 -5 c-13 -4 -43 -5 -68 -3 l-44 3 -3 203 -2 202 70 0 70 0 0 -200z m1688 -19 c2 -202 1 -215 -17 -233 -19 -17 -55 -18 -765 -18 -691 0 -747 1 -766 17 -19 16 -20 29 -20 229 0 116 3 214 7 217 3 4 356 6 782 5 l776 -3 3 -214z m262 20 c0 -188 -1 -200 -19 -206 -20 -6 -97 -5 -118 3 -9 3 -12 55 -12 195 0 105 2 194 5 199 3 4 36 8 75 8 l69 0 0 -199z m90 -22 c0 -109 -3 -199 -7 -199 -5 0 -18 3 -30 6 -23 6 -23 7 -23 210 l0 203 30 -10 30 -11 0 -199z m-1972 205 c22 -6 22 -7 22 -210 l0 -203 -30 10 -30 11 0 199 c0 109 3 199 8 199 4 0 17 -3 30 -6z m1712 -193 l0 -199 -30 -11 -30 -10 0 204 c0 185 2 204 18 208 43 11 42 16 42 -192z m-1716 -240 c55 -19 81 -51 30 -35 -37 11 -299 11 -341 0 -57 -15 -37 11 25 32 75 27 216 28 286 3z m1964 -2 c65 -22 89 -49 30 -33 -43 11 -303 11 -348 0 -30 -7 -33 -7 -22 5 46 49 232 65 340 28z m-2328 -27 c0 -40 -26 -42 -680 -42 l-630 0 0 30 0 30 655 0 c629 0 655 -1 655 -18z m3720 -12 l0 -30 -629 0 c-385 0 -640 4 -655 10 -16 6 -26 17 -26 30 0 20 4 20 655 20 l655 0 0 -30z m-3312 -25 c60 -19 76 -50 17 -34 -42 12 -402 7 -427 -5 -13 -6 -18 -4 -18 8 0 9 3 16 8 16 4 0 39 9 77 20 85 24 258 22 343 -5z m1931 5 c70 -18 101 -33 89 -45 -2 -3 -19 0 -36 6 -30 10 -404 9 -427 -1 -5 -3 -12 0 -15 5 -3 6 29 20 70 32 97 28 218 30 319 3z m-399 3 c-8 -3 -19 -12 -23 -19 -12 -21 -1427 -21 -1427 0 0 8 -8 17 -17 19 -10 3 320 5 732 5 413 0 743 -2 735 -5z m-1985 -43 c4 -6 -9 -17 -29 -25 -29 -12 -131 -15 -641 -15 -544 0 -606 2 -612 16 -3 9 0 20 8 25 21 13 1266 12 1274 -1z m3780 -15 c0 -20 -8 -20 -590 -23 -633 -3 -727 2 -688 41 3 4 293 6 642 5 628 -3 636 -3 636 -23z m-3307 -11 c68 -19 78 -27 58 -43 -11 -10 -25 -9 -67 3 -74 22 -312 22 -391 0 -54 -15 -61 -16 -75 -1 -14 14 -10 17 48 36 85 27 340 30 427 5z m1467 1 c-42 -18 -1360 -16 -1390 2 -16 10 129 12 700 12 604 -1 715 -3 690 -14z m509 -5 c36 -12 66 -23 66 -25 0 -2 -9 -9 -20 -15 -15 -8 -33 -7 -72 5 -72 21 -315 21 -387 -1 -41 -12 -56 -13 -67 -3 -8 6 -12 14 -9 18 44 43 371 57 489 21z m-2472 -55 c25 -21 37 -24 65 -19 31 6 35 4 31 -12 -3 -18 -27 -19 -689 -22 l-685 -2 -29 30 -28 29 24 10 c14 6 274 10 653 10 l628 1 30 -25z m658 -150 c0 -149 -2 -175 -15 -175 -13 0 -15 26 -15 175 0 149 2 175 15 175 13 0 15 -26 15 -175z m118 -2 l2 -173 -45 0 -45 0 0 176 0 175 43 -3 42 -3 3 -172z m62 2 c0 -168 -1 -175 -20 -175 -19 0 -20 7 -20 168 0 93 3 172 7 175 3 4 12 7 20 7 10 0 13 -36 13 -175z m110 0 l0 -175 -42 0 -43 0 2 172 c1 95 3 174 3 176 0 1 18 2 40 2 l40 0 0 -175z m60 0 c0 -149 -2 -175 -15 -175 -13 0 -15 26 -15 175 0 149 2 175 15 175 13 0 15 -26 15 -175z m120 0 l0 -175 -45 0 -45 0 0 175 0 175 45 0 45 0 0 -175z m60 0 c0 -149 -2 -175 -15 -175 -13 0 -15 26 -15 175 0 149 2 175 15 175 13 0 15 -26 15 -175z m140 0 l0 -175 -55 0 -55 0 0 175 0 175 55 0 55 0 0 -175z m60 0 c0 -149 -2 -175 -15 -175 -13 0 -15 26 -15 175 0 149 2 175 15 175 13 0 15 -26 15 -175z m118 -2 l2 -173 -45 0 -45 0 0 176 0 175 43 -3 42 -3 3 -172z m62 2 c0 -168 -1 -175 -20 -175 -19 0 -20 7 -20 168 0 93 3 172 7 175 3 4 12 7 20 7 10 0 13 -36 13 -175z m110 0 l0 -175 -40 0 -40 0 0 175 0 175 40 0 40 0 0 -175z m63 -3 c2 -158 1 -172 -15 -172 -17 0 -18 15 -18 176 0 153 2 175 16 172 13 -3 15 -29 17 -176z m117 3 l0 -175 -45 0 -45 0 0 175 0 175 45 0 45 0 0 -175z m60 0 c0 -149 -2 -175 -15 -175 -13 0 -15 26 -15 175 0 149 2 175 15 175 13 0 15 -26 15 -175z m1936 165 l27 -11 -28 -29 -29 -30 -685 2 c-664 3 -686 4 -689 22 -4 16 0 18 28 12 26 -5 38 -1 62 19 l30 25 628 0 c409 0 638 -4 656 -10z m-3256 -170 c0 -163 -1 -170 -20 -170 -11 0 -20 4 -20 9 0 5 -16 15 -35 21 l-35 12 0 134 0 135 33 -6 c25 -5 37 -2 51 14 11 12 21 21 23 21 1 0 3 -76 3 -170z m1426 136 l29 5 0 -135 0 -136 -32 -11 c-18 -6 -33 -15 -33 -20 0 -5 -9 -9 -20 -9 -19 0 -20 7 -20 172 l0 171 23 -21 c18 -17 31 -21 53 -16z m-1856 -110 c0 -137 -3 -146 -41 -146 -14 0 -9 263 5 272 32 22 36 9 36 -126z m210 4 c0 -97 -3 -130 -12 -131 -7 0 -47 -1 -88 -1 l-75 -2 -3 132 -3 132 91 0 90 0 0 -130z m75 124 c14 -6 16 -25 14 -141 -1 -114 -3 -134 -16 -129 -8 3 -21 6 -29 6 -11 0 -14 25 -14 135 0 141 1 145 45 129z m1683 -121 c2 -100 0 -124 -13 -137 -9 -9 -23 -16 -31 -16 -19 0 -21 265 -1 273 38 16 42 5 45 -120z m212 -3 l0 -130 -27 -1 c-16 0 -46 -2 -68 -4 -22 -2 -52 -1 -67 1 l-28 6 0 129 0 129 95 0 95 0 0 -130z m71 80 c4 -25 5 -63 4 -85 -1 -22 -3 -63 -4 -92 -1 -45 -3 -51 -21 -46 -21 6 -31 51 -29 138 2 101 9 136 27 133 11 -2 19 -17 23 -48z m-3271 -165 l0 -135 -215 0 -215 0 0 128 c0 71 3 132 7 135 3 4 100 7 215 7 l208 0 0 -135z m948 28 l3 -102 -28 -7 c-37 -9 -53 -22 -46 -40 4 -12 -56 -14 -421 -14 l-426 0 0 135 0 135 458 -2 457 -3 3 -102z m3272 -28 l0 -135 -424 0 -425 0 -3 22 c-2 15 -13 24 -35 30 l-33 9 0 104 0 105 460 0 460 0 0 -135z m458 -2 l3 -133 -215 0 -215 0 -3 128 c-2 70 -2 130 0 135 2 4 99 6 215 5 l212 -3 3 -132z m-3369 -92 c36 -10 67 -23 69 -30 3 -10 -4 -11 -29 -5 -44 12 -363 12 -411 0 -63 -14 -44 10 25 32 84 27 256 29 346 3z m1989 -6 c57 -18 74 -43 20 -29 -43 11 -371 11 -423 0 -61 -13 -28 15 43 36 75 23 281 19 360 -7z m-1938 -62 c63 -19 68 -24 47 -42 -11 -8 -26 -7 -63 4 -67 20 -332 21 -399 1 -37 -12 -51 -12 -66 -3 -11 7 -19 14 -19 17 0 3 26 13 58 22 86 23 363 24 442 1z m1460 8 c-34 -9 -37 -36 -6 -57 25 -16 26 -20 26 -110 0 -83 2 -95 20 -106 20 -13 20 -24 20 -554 0 -472 -2 -543 -15 -548 -12 -4 -15 -24 -15 -89 0 -87 -16 -151 -59 -235 -11 -22 -21 -50 -21 -62 0 -11 -4 -20 -10 -20 -7 0 -10 293 -10 860 l0 860 -627 -2 -628 -3 -5 -860 c-3 -473 -6 -849 -8 -836 -1 13 -11 38 -21 55 -38 62 -61 151 -61 240 0 65 -3 85 -15 90 -13 5 -15 75 -15 546 0 527 1 541 20 562 17 18 20 36 20 102 0 76 1 82 32 113 l31 33 -34 14 c-30 14 41 15 686 15 396 -1 709 -4 695 -8z m500 -8 c62 -17 69 -23 47 -42 -11 -8 -26 -7 -63 4 -34 10 -95 15 -199 15 -104 0 -165 -5 -199 -15 -37 -11 -52 -12 -63 -4 -22 19 -15 25 40 41 77 23 357 24 437 1z m-2505 -13 c4 -7 -210 -10 -634 -10 -421 0 -641 3 -641 10 0 7 218 10 634 10 413 0 637 -4 641 -10z m3895 0 c0 -7 -220 -10 -640 -10 -420 0 -640 3 -640 10 0 7 220 10 640 10 420 0 640 -3 640 -10z m-3840 -55 c11 -13 -71 -15 -740 -13 -592 2 -754 6 -758 16 -3 9 150 12 741 12 651 0 746 -2 757 -15z m466 4 l44 -11 0 -84 c0 -94 0 -94 -70 -69 -59 21 -263 20 -337 -1 -35 -10 -59 -12 -64 -7 -6 6 -9 43 -7 83 l3 73 35 13 c45 16 335 18 396 3z m1974 -3 l35 -13 3 -73 c2 -40 -1 -77 -7 -83 -5 -5 -29 -3 -64 7 -77 22 -272 22 -343 -1 -30 -9 -57 -14 -60 -10 -3 3 -7 41 -8 83 l-1 77 35 13 c48 17 362 17 410 0z m1568 2 c-4 -10 -166 -14 -758 -16 -669 -2 -751 0 -740 13 11 13 106 15 757 15 591 0 744 -3 741 -12z m-2149 -310 c0 -164 -4 -284 -9 -273 -4 11 -20 51 -35 88 -39 95 -91 173 -166 245 -100 96 -198 151 -335 186 -60 16 -64 15 -150 -10 -235 -68 -396 -219 -485 -454 l-28 -75 -1 293 0 292 605 0 605 0 -1 -292z m-3209 185 c0 -42 -3 -74 -6 -71 -14 15 -94 133 -94 140 0 4 23 8 50 8 l50 0 0 -77z m66 0 c6 -43 9 -81 7 -85 -1 -3 -12 -4 -23 -1 -18 5 -20 14 -20 84 0 58 3 79 13 79 9 0 16 -26 23 -77z m54 2 c0 -43 -4 -75 -10 -75 -5 0 -10 10 -11 23 0 12 -4 46 -8 75 -7 46 -5 52 11 52 16 0 18 -9 18 -75z m74 18 c13 -109 13 -107 -14 -107 -24 0 -25 1 -28 82 -3 75 -1 82 16 82 16 0 20 -10 26 -57z m56 -18 c0 -86 -14 -100 -24 -22 -9 80 -8 97 9 97 12 0 15 -15 15 -75z m77 -2 c12 -81 8 -93 -26 -88 -13 1 -17 17 -19 83 -3 74 -1 82 16 82 15 0 20 -13 29 -77z m53 0 c0 -94 -16 -88 -26 10 -6 58 -5 67 10 67 13 0 16 -12 16 -77z m78 1 c7 -42 10 -79 7 -84 -2 -4 -16 -5 -30 -2 -24 4 -25 7 -25 83 0 70 2 79 18 79 15 0 21 -13 30 -76z m51 -1 c0 -87 -14 -75 -25 23 -6 46 -4 54 10 54 13 0 16 -12 15 -77z m75 30 c4 -27 10 -63 13 -80 5 -31 4 -33 -26 -33 l-31 0 0 80 c0 72 2 80 19 80 15 0 20 -10 25 -47z m62 -25 c-5 -89 -5 -86 -15 -68 -5 8 -12 43 -16 78 -7 59 -6 62 15 62 20 0 21 -3 16 -72z m73 -5 c12 -83 13 -80 -9 -83 -38 -6 -40 -1 -40 80 0 72 2 80 19 80 16 0 20 -12 30 -77z m61 2 c0 -112 -20 -99 -36 23 -6 49 -5 52 15 52 20 0 21 -5 21 -75z m64 43 c3 -18 8 -56 12 -84 7 -55 11 -51 -48 -45 -5 1 -8 37 -8 81 0 72 2 80 19 80 13 0 20 -9 25 -32z m66 -43 c0 -41 -4 -75 -8 -75 -7 0 -32 107 -32 139 0 6 9 11 20 11 18 0 20 -7 20 -75z m65 42 c4 -18 7 -55 8 -82 2 -46 1 -49 -23 -49 -25 0 -25 1 -26 82 0 72 2 82 17 82 12 0 20 -10 24 -33z m65 -42 c0 -77 -13 -101 -23 -42 -20 118 -20 117 2 117 19 0 21 -6 21 -75z m65 43 c3 -18 9 -54 14 -80 5 -27 5 -49 0 -49 -11 -2 -37 -2 -46 0 -5 0 -7 37 -5 81 3 60 7 80 17 80 8 0 17 -14 20 -32z m65 -43 c0 -82 -14 -100 -24 -32 -4 23 -9 57 -12 75 -5 28 -3 32 15 32 19 0 21 -5 21 -75z m70 38 c1 -21 5 -57 9 -80 7 -34 5 -42 -8 -46 -35 -9 -41 3 -41 84 0 72 2 79 20 79 16 0 20 -7 20 -37z m60 -38 c0 -86 -14 -100 -24 -22 -4 28 -10 62 -13 75 -4 17 -1 22 16 22 19 0 21 -5 21 -75z m58 10 c-2 -41 2 -69 10 -77 19 -19 14 -26 -13 -20 -24 4 -25 7 -25 83 0 65 3 79 16 79 13 0 15 -11 12 -65z m2522 -14 c0 -63 -3 -80 -16 -85 -22 -8 -39 3 -25 17 6 6 11 42 11 79 0 54 3 68 15 68 12 0 15 -15 15 -79z m56 12 c-10 -98 -26 -104 -26 -10 0 65 3 77 16 77 15 0 16 -9 10 -67z m74 -11 c0 -43 -2 -81 -5 -84 -3 -3 -17 -3 -31 0 -20 4 -24 9 -20 26 3 11 9 47 13 79 5 47 9 57 24 57 17 0 19 -9 19 -78z m67 56 c-3 -13 -9 -47 -13 -75 -10 -78 -24 -64 -24 22 0 70 2 75 21 75 17 0 20 -5 16 -22z m63 -57 c0 -69 -2 -79 -19 -84 -34 -8 -38 5 -27 86 8 64 13 77 28 77 16 0 18 -10 18 -79z m66 52 c-3 -16 -8 -49 -12 -75 -10 -73 -24 -57 -24 27 0 69 2 75 21 75 17 0 20 -5 15 -27z m62 -55 c-3 -81 -4 -82 -28 -82 -14 0 -24 6 -23 12 2 6 6 43 9 82 6 60 10 70 26 70 17 0 19 -7 16 -82z m68 50 c-3 -18 -8 -52 -12 -75 -10 -68 -24 -50 -24 32 0 70 2 75 21 75 18 0 20 -4 15 -32z m67 -40 c-3 -90 -6 -97 -36 -91 -23 4 -24 7 -16 46 4 23 10 59 14 80 4 26 11 37 23 37 15 0 17 -10 15 -72z m67 61 c0 -32 -25 -139 -32 -139 -4 0 -8 34 -8 75 0 68 2 75 20 75 11 0 20 -5 20 -11z m64 -63 c-2 -85 -6 -96 -34 -89 -23 6 -24 14 -9 100 8 47 15 63 28 63 13 0 16 -11 15 -74z m66 62 c0 -34 -23 -138 -31 -138 -5 0 -9 34 -9 75 0 68 2 75 20 75 11 0 20 -5 20 -12z m70 -68 l0 -80 -31 0 -31 0 6 48 c15 104 18 112 37 112 17 0 19 -8 19 -80z m56 28 c-10 -75 -17 -99 -27 -92 -5 3 -9 36 -9 75 0 64 2 69 21 69 20 0 21 -3 15 -52z m74 -27 c0 -82 -9 -98 -45 -85 -18 7 -18 7 -4 95 10 56 15 69 30 69 17 0 19 -9 19 -79z m55 17 c-4 -35 -11 -70 -16 -78 -10 -17 -9 -20 -14 78 -2 56 -1 62 17 62 19 0 19 -5 13 -62z m73 -20 c-3 -77 -4 -81 -26 -83 -13 -1 -25 2 -27 6 -3 4 0 41 6 83 10 64 14 76 31 76 17 0 19 -7 16 -82z m58 20 c-11 -97 -25 -105 -26 -15 0 65 3 77 16 77 14 0 16 -9 10 -62z m74 -18 c0 -44 -3 -80 -7 -81 -5 0 -16 -2 -25 -4 -27 -5 -29 7 -16 89 9 63 15 76 30 76 16 0 18 -9 18 -80z m56 13 c-10 -98 -26 -104 -26 -10 0 65 3 77 16 77 15 0 16 -9 10 -67z m64 -12 c0 -70 -2 -79 -20 -84 -11 -3 -22 -2 -24 2 -2 3 1 41 7 84 7 51 15 77 24 77 10 0 13 -21 13 -79z m120 64 c0 -8 -20 -42 -45 -76 l-45 -61 0 76 0 76 45 0 c33 0 45 -4 45 -15z m-2585 -48 c202 -67 348 -207 429 -411 29 -72 52 -172 58 -246 l3 -45 -40 0 -40 0 -6 95 c-15 219 -139 414 -321 506 -77 39 -155 64 -201 64 -36 0 -158 -43 -216 -77 -25 -14 -76 -56 -112 -92 -113 -114 -167 -233 -177 -396 l-7 -100 -40 0 -40 0 3 55 c6 115 59 274 125 373 81 122 196 213 335 265 123 45 137 46 247 9z m-1217 -1163 c-2 -1 -20 -5 -41 -9 l-37 -7 2 542 3 543 35 12 35 12 3 -545 c1 -300 1 -546 0 -548z m222 551 l0 -545 -95 0 -95 0 0 545 0 545 95 0 95 0 0 -545z m100 -26 l0 -548 -36 12 c-19 7 -35 16 -35 20 1 4 1 250 1 546 l0 539 35 -11 35 -10 0 -548z m1640 23 l0 -549 -35 -10 -35 -11 0 547 0 548 33 11 c17 5 33 10 35 11 1 1 2 -246 2 -547z m220 4 l0 -545 -95 -3 -95 -3 0 548 0 547 95 0 95 0 0 -544z m99 518 c3 -3 7 -248 8 -545 1 -591 6 -549 -54 -533 l-23 6 0 548 0 549 31 -9 c18 -5 34 -12 38 -16z m-2382 -566 c2 -506 2 -527 -16 -533 -17 -5 -19 -19 -23 -118 -3 -84 -9 -122 -24 -151 l-19 -39 -5 654 -5 654 -371 1 c-204 1 -376 -1 -383 -5 -9 -6 -12 -181 -12 -704 l0 -697 -254 0 -255 0 0 735 0 735 683 -2 682 -3 2 -527z m3783 -203 l0 -735 -255 0 -255 0 -2 703 -3 702 -361 2 c-199 1 -371 -1 -383 -4 l-21 -5 0 -657 c-1 -594 -2 -653 -16 -628 -22 40 -44 152 -44 223 0 46 -4 63 -15 68 -13 5 -15 73 -15 529 0 288 3 527 7 530 3 4 312 7 685 7 l678 0 0 -735z m-3900 -45 l0 -690 -69 0 -70 0 3 384 c2 212 0 390 -4 396 -4 7 -77 10 -226 8 l-219 -3 0 -393 0 -392 -67 0 -68 0 0 683 c0 376 3 687 7 690 3 4 165 7 360 7 l353 0 0 -690z m3362 -3 l3 -687 -67 0 -68 0 0 395 0 395 -222 -2 -223 -3 -2 -225 c-1 -124 -3 -300 -3 -392 l0 -168 -65 0 -65 0 0 690 0 690 355 -2 355 -3 2 -688z m-1959 602 c131 -44 235 -133 294 -251 47 -94 63 -167 63 -284 0 -88 3 -103 20 -119 19 -17 20 -31 20 -317 l0 -298 -290 0 c-251 0 -290 -2 -290 -15 0 -13 42 -15 319 -15 203 0 322 -4 326 -10 3 -5 29 -10 56 -10 49 0 50 -1 47 -27 -3 -27 -5 -28 -75 -31 -40 -2 -73 -7 -73 -12 0 -6 194 -10 515 -10 337 0 515 3 515 10 0 6 -40 10 -99 10 -102 0 -113 4 -103 43 4 15 18 17 108 17 58 0 106 4 109 10 4 6 63 10 146 10 86 0 139 -4 139 -10 0 -14 767 -14 775 0 4 6 77 10 186 10 l180 0 -12 -22 c-6 -13 -46 -70 -88 -128 -485 -670 -1174 -1143 -1971 -1353 -743 -196 -1564 -132 -2277 178 -597 260 -1127 697 -1491 1228 l-63 92 162 3 c102 1 166 -1 173 -8 14 -14 776 -14 776 0 0 6 53 10 139 10 83 0 142 -4 146 -10 3 -6 52 -10 111 -10 l104 0 0 -30 0 -30 -230 0 c-147 0 -230 -4 -230 -10 0 -7 315 -10 925 -10 610 0 925 3 925 10 0 6 -125 10 -355 10 l-355 0 0 30 c0 29 1 30 49 30 28 0 53 5 56 10 4 6 67 10 156 10 126 0 149 2 149 15 0 13 -20 15 -120 15 l-120 0 0 305 c0 294 1 305 20 317 18 12 20 24 20 118 0 118 15 185 59 275 59 118 159 205 290 251 81 29 87 29 164 3z m-595 -450 c2 -16 -6 -33 -23 -49 l-25 -23 0 -384 c0 -376 0 -383 -20 -383 -20 0 -20 7 -20 428 0 236 2 431 5 434 3 3 22 4 43 4 32 -2 37 -5 40 -27z m1120 -407 c2 -427 2 -432 -18 -432 -20 0 -20 6 -20 379 l0 378 -25 27 c-23 25 -33 65 -20 78 3 3 22 5 43 3 l37 -1 3 -432z m-2091 -54 c2 -328 1 -378 -12 -378 -13 0 -15 26 -15 168 0 156 -2 170 -20 187 -16 15 -20 31 -20 89 0 80 -14 110 -70 151 -42 31 -68 31 -110 3 -56 -38 -71 -67 -77 -149 -3 -41 -11 -81 -19 -90 -11 -12 -14 -55 -14 -187 0 -165 -1 -172 -20 -172 -20 0 -20 7 -20 373 0 206 3 377 7 381 4 3 93 5 197 4 l191 -3 2 -377z m3363 2 c0 -331 -2 -380 -15 -380 -13 0 -15 26 -15 170 0 156 -2 172 -20 190 -16 16 -19 33 -19 89 1 81 -8 102 -63 141 -50 37 -72 37 -121 5 -51 -35 -67 -71 -67 -150 0 -52 -4 -69 -20 -85 -18 -18 -20 -33 -20 -190 0 -144 -2 -170 -15 -170 -13 0 -15 48 -15 373 0 206 3 377 7 380 3 4 91 7 195 7 l188 0 0 -380z m-2722 21 c8 -4 17 -45 23 -101 11 -111 23 -159 55 -222 17 -34 24 -64 24 -108 l0 -60 -240 0 -240 0 0 59 c0 43 6 70 24 102 33 58 53 140 62 244 5 65 10 85 23 88 30 8 256 7 269 -2z m1957 3 c19 -5 22 -18 32 -119 9 -97 16 -125 47 -192 30 -64 37 -88 34 -128 l-3 -50 -241 -3 -241 -2 2 65 c1 36 7 71 14 78 28 34 62 152 68 238 4 57 11 96 20 105 11 10 44 14 131 14 64 0 126 -3 137 -6z m-2285 -158 c-8 -53 -23 -102 -46 -148 -27 -54 -34 -79 -34 -128 0 -53 -2 -60 -20 -60 -18 0 -20 7 -20 55 0 37 7 70 21 97 43 84 59 149 59 234 0 78 1 83 23 86 29 4 33 -28 17 -136z m411 134 c5 0 9 -31 9 -68 0 -79 20 -162 55 -232 32 -63 37 -174 8 -168 -14 3 -19 15 -21 63 -1 39 -11 77 -27 110 -30 61 -51 148 -59 238 -5 60 -3 68 10 63 9 -3 20 -6 25 -6z m1562 -47 c-7 -99 -22 -164 -50 -222 -18 -37 -29 -80 -32 -126 -5 -61 -8 -70 -26 -70 -33 0 -27 84 12 172 34 77 55 168 46 202 -3 11 -2 36 1 55 6 31 14 38 47 45 3 0 4 -25 2 -56z m419 -56 c3 -93 7 -109 41 -181 29 -60 37 -90 37 -133 0 -50 -2 -54 -22 -51 -19 3 -22 9 -21 58 1 43 -6 69 -32 125 -35 71 -55 162 -55 246 0 43 1 46 24 42 23 -5 24 -9 28 -106z"></path><path d="M4440 6605 l0 -145 665 0 666 0 -3 143 -3 142 -662 3 -663 2 0 -145z m1300 0 l0 -115 -638 0 -637 0 -3 78 c-1 42 0 94 4 115 l6 37 634 0 634 0 0 -115z"></path><path d="M4592 5750 c-51 -21 -54 -99 -4 -123 35 -17 68 -11 87 16 22 31 18 64 -10 92 -26 27 -37 29 -73 15z m53 -33 c23 -18 14 -62 -15 -70 -41 -11 -69 51 -32 72 22 14 25 13 47 -2z"></path><path d="M4607 5704 c-14 -15 -6 -34 14 -34 14 0 19 5 17 17 -3 18 -20 27 -31 17z"></path><path d="M5546 5739 c-39 -30 -37 -83 5 -108 34 -21 57 -18 88 10 28 26 27 64 -4 94 -30 30 -54 31 -89 4z m80 -31 c3 -5 3 -20 0 -32 -11 -45 -76 -37 -76 9 0 13 7 28 16 33 19 10 51 5 60 -10z"></path><path d="M5583 5703 c-18 -6 -16 -33 1 -33 8 0 17 4 20 8 7 12 -7 30 -21 25z"></path><path d="M7456 1932 c5 -34 -3 -128 -22 -254 l-5 -36 -36 24 c-23 16 -50 24 -77 24 -36 0 -46 -6 -95 -57 -57 -61 -98 -139 -106 -201 -3 -26 -15 -47 -40 -69 -19 -18 -39 -33 -45 -33 -7 0 -9 13 -6 33 3 17 13 86 22 151 l17 120 -27 23 c-19 16 -40 23 -70 23 -48 0 -68 -17 -130 -110 l-37 -55 3 80 3 80 -57 15 c-38 9 -61 11 -68 4 -5 -5 -14 -63 -20 -128 -6 -65 -15 -123 -21 -130 -5 -6 -27 -35 -49 -63 -65 -85 -71 -72 -45 101 8 55 15 118 15 142 0 41 -1 42 -47 58 -65 22 -71 21 -82 -21 -22 -86 -43 -340 -30 -365 11 -20 68 -38 120 -38 40 0 64 21 97 85 l21 40 -1 -41 c-1 -22 2 -46 5 -51 10 -15 92 -42 104 -34 5 3 26 48 46 100 21 51 56 123 78 160 37 60 40 63 35 31 -3 -19 -9 -85 -12 -146 l-7 -112 28 -18 c17 -11 46 -18 78 -18 43 0 53 4 77 31 15 17 30 37 32 44 4 11 11 9 33 -6 62 -44 81 -54 106 -54 30 -1 92 37 132 82 26 28 28 29 22 9 -10 -35 12 -80 43 -86 123 -23 138 -19 182 52 l30 47 0 -36 c0 -50 25 -70 98 -76 54 -5 63 -3 84 19 14 13 29 32 35 42 9 17 13 16 56 -17 77 -59 116 -56 182 12 38 38 45 38 45 2 0 -43 31 -61 107 -61 l62 0 41 62 c28 43 40 73 40 97 l0 36 -19 -30 c-20 -33 -77 -95 -87 -95 -9 0 3 131 20 219 19 100 11 133 -39 149 -22 7 -55 12 -72 10 -18 -2 -35 1 -38 7 -3 5 -3 1 0 -10 15 -73 16 -117 1 -176 -9 -35 -23 -70 -31 -79 -8 -9 -15 -21 -15 -27 0 -16 -79 -65 -98 -61 -51 10 1 152 84 228 24 22 44 47 44 55 0 20 -58 55 -92 55 -60 0 -154 -123 -185 -241 -13 -51 -26 -78 -50 -101 l-33 -32 0 35 c0 18 7 91 17 162 19 145 20 145 -56 166 -59 17 -64 9 -79 -119 -7 -55 -19 -115 -28 -133 -17 -33 -81 -97 -96 -97 -9 0 -5 59 13 185 24 175 36 314 30 365 -7 61 -21 73 -99 86 l-43 7 7 -41z m-52 -354 c23 -32 20 -55 -14 -108 -95 -148 -199 -140 -119 10 30 56 88 120 109 120 5 0 16 -10 24 -22z"></path><path d="M5923 1938 c-18 -24 -30 -72 -52 -218 -13 -80 -33 -208 -46 -285 -53 -312 -51 -296 -30 -311 10 -8 34 -14 53 -14 66 0 113 80 116 198 1 49 4 54 36 73 19 12 37 26 39 32 2 5 19 26 37 47 37 40 54 78 54 117 0 24 -3 22 -31 -21 -31 -47 -115 -123 -125 -114 -3 3 2 13 11 21 22 22 82 144 100 202 42 140 27 228 -44 264 -45 23 -103 27 -118 9z m104 -190 c-5 -52 -45 -193 -52 -186 -2 2 3 32 10 68 8 36 14 77 15 92 0 30 16 78 26 78 4 0 4 -24 1 -52z"></path><path d="M3055 1888 c-13 -110 -10 -106 -62 -100 l-45 5 7 -34 c13 -66 15 -69 46 -69 28 0 30 -2 24 -32 -13 -79 -35 -273 -35 -312 0 -58 23 -84 80 -92 55 -7 119 16 127 46 7 27 19 25 38 -4 18 -27 81 -56 122 -56 48 0 112 40 164 102 27 32 49 55 49 51 0 -4 -5 -26 -10 -47 -8 -37 -6 -42 25 -73 22 -22 42 -33 61 -33 27 0 31 6 57 78 30 79 125 262 137 262 8 0 7 -11 -16 -178 -19 -142 -16 -150 54 -159 31 -4 43 -2 46 8 2 8 16 57 30 109 15 52 43 129 63 171 29 64 40 78 63 82 15 4 41 18 56 32 23 21 24 25 9 20 -52 -17 -75 -17 -81 -1 -3 9 -17 16 -31 16 -24 0 -25 -3 -20 -36 5 -29 0 -47 -19 -80 -14 -24 -28 -44 -31 -44 -3 0 -2 27 2 60 l7 59 -34 21 c-18 11 -42 20 -53 20 -17 0 -60 -44 -141 -145 -15 -19 -15 -19 -9 -1 3 11 8 45 12 76 5 52 3 59 -18 74 -13 9 -42 16 -66 16 -40 0 -42 -2 -47 -32 -32 -203 -34 -207 -139 -285 -61 -44 -105 -55 -125 -30 -9 10 6 24 64 63 136 88 165 139 127 218 -18 38 -70 66 -124 66 -65 0 -199 -171 -199 -255 0 -28 -61 -115 -81 -115 -5 0 -9 17 -9 38 0 45 37 310 45 323 4 5 14 9 24 9 10 0 35 16 55 35 21 19 43 35 51 35 7 0 23 9 36 21 18 15 19 19 6 15 -24 -8 -145 -20 -154 -15 -5 2 -6 27 -5 55 5 68 -18 94 -82 94 l-44 0 -7 -52z m435 -337 c0 -26 -105 -121 -135 -121 -13 0 40 87 72 117 34 33 63 35 63 4z"></path><path d="M6466 1838 c-15 -49 -14 -61 9 -84 25 -25 77 -32 103 -15 8 4 16 27 19 49 5 38 3 42 -21 52 -38 14 -106 13 -110 -2z"></path><path d="M7715 1809 c-9 -53 7 -70 73 -77 l50 -4 13 42 c12 40 12 44 -10 61 -16 13 -39 19 -71 19 l-48 0 -7 -41z"></path><path d="M2012 1678 c-47 -50 -90 -153 -97 -236 -6 -68 -5 -71 25 -105 36 -41 86 -67 129 -67 23 0 43 11 76 43 35 34 45 39 45 25 0 -21 -61 -68 -148 -113 -48 -26 -57 -35 -60 -60 -4 -41 27 -72 80 -80 53 -8 145 23 186 63 34 33 68 103 77 159 4 23 17 54 31 70 23 27 24 27 24 6 0 -33 64 -99 115 -118 50 -20 68 -14 126 42 l37 35 7 -31 c10 -45 39 -61 110 -61 63 0 85 11 85 41 0 9 7 20 15 23 20 7 45 66 45 103 l0 28 -19 -30 c-10 -16 -35 -46 -55 -64 l-36 -35 0 50 c1 27 7 85 15 129 8 44 15 101 15 126 0 45 -1 47 -41 63 -23 9 -59 16 -80 14 l-39 -2 6 -40 c3 -23 7 -47 10 -54 7 -23 -18 -116 -42 -159 -26 -44 -86 -93 -116 -93 -58 0 5 162 93 240 45 39 45 56 0 83 -52 30 -84 23 -134 -32 -24 -28 -63 -81 -86 -120 -49 -83 -65 -97 -56 -49 31 180 28 195 -44 216 -71 22 -77 18 -79 -40 -3 -102 -57 -220 -120 -263 -44 -30 -48 -31 -62 -5 -9 16 -7 35 5 78 33 111 83 182 128 182 20 0 46 26 35 35 -23 19 -78 35 -121 35 -47 0 -57 -4 -85 -32z m148 -487 c-12 -22 -51 -37 -75 -27 -26 9 -17 25 33 56 44 27 47 28 50 10 2 -10 -2 -28 -8 -39z"></path><path d="M4358 1675 c14 -81 6 -151 -26 -217 -32 -65 -86 -113 -120 -106 -59 11 18 188 109 251 27 20 18 52 -21 72 -62 32 -98 16 -166 -77 -50 -69 -88 -176 -79 -225 6 -35 62 -91 113 -112 40 -17 73 -5 127 45 21 19 39 34 41 34 2 0 4 -13 4 -30 0 -44 33 -62 111 -58 54 3 64 6 78 28 9 14 25 40 35 56 l20 31 24 -29 c30 -36 92 -68 130 -68 20 0 44 13 76 41 30 26 46 35 46 26 0 -21 -59 -68 -127 -102 -70 -36 -83 -49 -83 -85 0 -58 91 -86 177 -55 99 37 140 87 167 204 7 32 23 68 34 79 29 29 62 96 61 124 0 22 -1 22 -12 4 -7 -10 -22 -31 -35 -45 l-23 -26 5 25 c2 14 10 60 16 103 13 91 7 106 -59 125 -69 21 -76 18 -77 -36 0 -26 -13 -84 -28 -129 -22 -66 -35 -89 -71 -122 -25 -23 -49 -41 -54 -41 -16 0 -42 32 -37 46 3 7 8 30 11 51 4 21 15 62 26 91 33 91 24 113 -55 146 -47 20 -66 15 -66 -16 0 -43 -48 -248 -63 -272 -9 -12 -30 -38 -49 -56 l-33 -34 -3 40 c-1 21 6 88 16 147 24 139 19 168 -33 185 -22 7 -55 12 -72 10 -18 -2 -35 1 -38 7 -2 5 -1 -8 3 -30z m485 -447 c-8 -47 -31 -70 -67 -66 -46 5 -42 23 16 62 29 20 54 36 55 36 1 0 0 -15 -4 -32z"></path><path d="M5419 1690 c-67 -36 -133 -150 -115 -197 4 -8 13 -47 21 -85 18 -90 49 -131 108 -148 72 -20 122 -6 175 49 46 47 88 123 77 141 -3 6 -2 10 2 10 5 0 10 12 11 28 1 26 1 26 -14 7 -14 -19 -14 -17 -8 25 8 53 14 64 14 27 0 -15 4 -27 9 -27 12 0 24 34 13 38 -5 1 -7 15 -4 30 3 15 1 24 -3 20 -4 -4 -15 7 -24 24 -28 55 -63 73 -149 76 -61 2 -84 -2 -113 -18z m145 -72 c13 -52 5 -112 -25 -181 -35 -81 -69 -123 -93 -114 -39 15 4 167 61 213 30 26 25 39 -19 48 l-33 7 30 24 c38 32 71 32 79 3z m109 -193 c-3 -9 -8 -14 -10 -11 -3 3 -2 9 2 15 9 16 15 13 8 -4z"></path><path d="M4495 988 c0 -29 -8 -123 -18 -208 -17 -150 -19 -156 -49 -185 l-30 -30 6 55 c4 30 10 83 14 118 7 51 6 65 -7 76 -46 39 -78 27 -122 -45 -17 -27 -31 -49 -32 -49 -1 0 0 24 1 54 4 55 4 55 -30 64 -19 5 -40 5 -51 0 -18 -9 -67 -80 -67 -97 0 -5 -4 -12 -8 -15 -5 -3 -7 19 -4 49 l4 54 -41 11 c-23 6 -45 9 -50 6 -5 -3 -12 -48 -16 -100 -6 -88 -9 -97 -40 -133 -18 -21 -36 -35 -40 -31 -4 4 0 53 8 110 16 110 14 122 -30 139 -37 14 -51 1 -58 -54 -4 -29 -16 -66 -27 -84 -24 -41 -81 -89 -86 -74 -2 6 3 47 12 90 23 113 23 116 -25 130 -24 7 -45 9 -50 4 -5 -5 -16 -56 -24 -113 -13 -85 -21 -110 -40 -129 -13 -14 -27 -22 -30 -19 -3 3 0 52 8 109 8 57 12 109 10 116 -3 6 -18 16 -35 22 -41 14 -61 2 -99 -62 l-30 -52 2 45 c3 67 2 68 -38 79 -45 13 -63 0 -99 -71 -13 -27 -26 -48 -27 -48 -2 0 -2 24 1 54 l4 55 -42 11 c-53 14 -55 11 -64 -89 -3 -42 -9 -106 -12 -142 l-6 -66 32 -12 c43 -14 70 -14 75 2 2 6 16 51 30 99 15 49 30 88 34 88 4 0 4 -30 0 -67 -13 -109 -12 -110 22 -122 48 -17 55 -14 67 27 7 20 25 64 40 97 l29 60 -5 -82 -5 -83 38 -16 c41 -17 101 -12 107 8 3 8 12 6 28 -5 37 -26 63 -21 121 23 52 39 54 40 57 18 6 -36 20 -46 69 -54 44 -6 48 -5 74 27 26 31 28 32 29 12 0 -17 9 -25 39 -34 52 -16 68 -8 76 38 3 21 17 65 31 98 l24 60 -6 -92 -5 -92 40 -12 c23 -7 42 -10 44 -8 2 2 15 36 30 75 43 112 54 119 49 35 -5 -83 3 -97 60 -106 32 -6 46 -3 68 14 17 12 30 16 32 10 2 -6 25 -13 51 -16 40 -5 47 -3 47 12 0 16 2 16 25 1 44 -29 78 -21 123 28 44 48 65 88 76 149 9 46 -9 79 -54 102 -39 20 -70 11 -114 -31 -39 -38 -39 -39 -26 61 5 38 6 90 3 117 -5 41 -9 48 -36 57 -56 20 -62 16 -62 -41z m193 -246 c7 -46 -71 -151 -102 -139 -37 15 -12 87 49 140 34 30 49 30 53 -1z"></path><path d="M6487 943 c-4 -54 -9 -108 -13 -120 -6 -22 -6 -22 -27 -2 -11 10 -35 19 -52 19 -54 0 -145 -113 -145 -180 0 -27 -63 -92 -67 -70 -2 8 3 57 11 109 8 52 12 100 9 107 -2 7 -18 17 -34 23 -42 15 -74 -3 -116 -64 l-35 -50 7 53 7 52 -36 15 c-19 8 -42 15 -50 15 -14 0 -24 -46 -28 -137 -2 -35 -10 -52 -46 -90 l-43 -48 5 65 c3 36 9 90 12 121 l6 55 -41 14 c-23 7 -44 10 -48 7 -9 -10 -33 -174 -33 -233 0 -59 9 -70 67 -80 37 -6 45 -3 67 21 14 15 26 34 26 41 0 7 5 16 12 20 8 5 9 2 4 -11 -11 -30 3 -53 40 -65 20 -7 37 -10 39 -8 1 1 15 35 30 73 16 39 41 90 57 115 l29 45 -5 -35 c-3 -19 -8 -65 -12 -101 -6 -62 -5 -67 17 -83 38 -26 87 -21 119 14 l28 30 38 -25 c20 -14 44 -25 53 -25 21 0 71 33 93 62 l18 23 0 -32 c0 -37 17 -50 70 -53 55 -3 58 -2 85 37 l25 38 0 -28 c0 -22 7 -31 35 -43 51 -21 74 -17 102 15 l26 30 36 -25 c46 -31 82 -30 119 1 37 31 40 31 44 3 6 -44 124 -51 135 -8 3 11 9 20 13 20 10 0 30 47 30 72 0 18 -6 14 -31 -20 -42 -57 -53 -54 -45 11 3 28 9 84 12 124 l7 71 -39 10 c-70 18 -75 15 -68 -37 3 -26 1 -66 -5 -89 -21 -75 -121 -150 -121 -91 0 34 41 108 77 140 18 15 33 33 33 38 0 16 -42 41 -68 41 -43 0 -108 -90 -138 -190 -14 -47 -38 -79 -51 -66 -4 3 -1 46 5 95 18 133 18 135 -24 150 -49 18 -56 8 -70 -91 -12 -82 -30 -118 -73 -146 l-23 -16 7 60 c4 32 11 76 16 96 16 62 20 275 6 286 -7 6 -28 13 -48 17 l-36 7 -6 -99z m-28 -195 c11 -29 -9 -70 -56 -115 -37 -36 -46 -39 -60 -20 -16 19 3 68 43 115 40 47 61 53 73 20z"></path><path d="M5217 954 c-14 -14 -7 -72 9 -78 30 -11 72 -6 78 10 8 22 8 52 -2 58 -15 9 -78 17 -85 10z"></path><path d="M5780 936 c-13 -34 -13 -32 6 -50 8 -9 30 -16 49 -16 29 0 34 4 40 31 8 38 -1 48 -48 56 -33 5 -38 3 -47 -21z"></path><path d="M6685 946 c-3 -9 -7 -23 -10 -31 -7 -22 23 -45 60 -45 29 0 34 4 40 31 8 38 -1 48 -48 56 -29 4 -38 2 -42 -11z"></path><path d="M4996 839 c14 -23 4 -129 -15 -167 -20 -39 -77 -86 -93 -76 -28 18 13 117 69 169 l35 32 -27 21 c-15 12 -36 22 -46 22 -67 0 -163 -186 -129 -250 15 -28 68 -60 100 -60 14 0 39 13 56 28 l31 28 10 -27 c8 -21 20 -29 47 -34 53 -10 79 0 101 41 l20 37 5 -29 c7 -38 73 -65 114 -46 28 12 66 78 66 113 0 18 -5 15 -30 -19 -41 -56 -54 -55 -46 6 4 26 9 79 13 118 l6 72 -38 12 c-24 8 -40 9 -47 2 -5 -5 -14 -42 -19 -83 -12 -82 -25 -113 -64 -149 l-28 -25 6 65 c3 36 9 90 13 121 6 50 4 58 -13 67 -24 13 -104 22 -97 11z"></path><path d="M2333 764 c-39 -19 -67 -74 -58 -114 12 -56 72 -97 125 -85 34 7 75 51 84 88 9 40 -18 92 -59 111 -41 20 -52 20 -92 0z m90 -15 c26 -12 47 -47 47 -79 0 -32 -21 -67 -47 -79 -97 -44 -178 65 -104 140 31 31 64 36 104 18z"></path><path d="M2354 706 c-23 -14 -25 -64 -3 -76 9 -5 29 -6 44 -1 24 6 29 13 30 38 0 18 -3 29 -7 27 -4 -3 -8 -1 -8 4 0 15 -35 20 -56 8z"></path><path d="M7814 766 c-121 -53 -54 -237 71 -196 40 13 75 59 75 98 0 39 -29 83 -65 98 -41 17 -42 17 -81 0z m94 -26 c29 -18 32 -25 32 -65 0 -59 -32 -95 -85 -95 -48 0 -95 45 -95 90 0 41 47 90 87 90 15 0 43 -9 61 -20z"></path><path d="M7827 712 c-14 -3 -17 -12 -15 -39 4 -45 36 -61 69 -34 43 35 6 85 -54 73z"></path><path d="M5419 678 c-1 -18 -1 -37 0 -41 1 -4 -3 -32 -7 -63 -5 -30 -6 -57 -2 -59 7 -4 15 22 27 90 3 17 10 36 15 43 7 8 7 12 -1 12 -6 0 -11 11 -11 25 0 37 -20 30 -21 -7z"></path><path d="M1792 403 l3 -128 585 0 585 0 3 128 3 127 -591 0 -591 0 3 -127z"></path><path d="M7260 406 c0 -124 0 -124 25 -130 31 -8 1130 -7 1150 0 12 5 15 29 15 130 l0 124 -595 0 -595 0 0 -124z"></path></g></svg>