<svg xmlns="http://www.w3.org/2000/svg" width="225.000000pt" height="225.000000pt" viewBox="0 0 225.000000 225.000000" preserveAspectRatio="xMidYMid meet"><g transform="translate(0.000000,225.000000) scale(0.100000,-0.100000)" fill="#000000" stroke="none"><path d="M975 2239 c-359 -45 -696 -289 -858 -621 -272 -555 -41 -1229 515 -1501 556 -272 1229 -41 1501 515 215 438 122 960 -229 1299 -250 242 -581 351 -929 308z m308 -54 c236 -35 456 -150 620 -324 305 -324 380 -790 192 -1189 l-44 -92 -40 0 -41 0 0 220 c0 187 2 222 15 226 19 8 19 40 0 48 -11 4 -15 21 -15 66 0 45 4 62 15 66 8 4 15 15 15 25 0 18 -10 19 -180 19 -146 0 -180 3 -180 14 0 7 -7 19 -15 26 -11 9 -15 33 -15 86 0 40 -4 76 -10 79 -6 3 -10 48 -10 100 0 73 3 94 15 99 8 3 15 14 15 25 0 10 -7 21 -15 25 -8 3 -15 17 -15 31 0 14 -11 37 -24 50 -14 14 -26 35 -28 47 -4 33 -48 38 -48 6 0 -14 -13 -35 -30 -50 -21 -18 -30 -35 -30 -56 0 -17 -6 -32 -15 -36 -8 -3 -15 -12 -15 -21 0 -9 7 -18 15 -21 8 -4 15 -12 15 -20 0 -12 -51 -14 -305 -14 -254 0 -305 2 -305 14 0 8 7 16 15 20 8 3 15 12 15 21 0 9 -7 18 -15 21 -9 4 -15 19 -15 36 0 21 -9 38 -30 56 -17 15 -30 36 -30 50 0 32 -44 27 -48 -6 -2 -12 -14 -33 -28 -47 -13 -13 -24 -36 -24 -50 0 -14 -7 -28 -15 -31 -8 -4 -15 -15 -15 -25 0 -11 7 -22 15 -25 12 -5 15 -26 15 -99 0 -52 -4 -97 -10 -100 -6 -3 -10 -39 -10 -79 0 -53 -4 -77 -15 -86 -8 -7 -15 -19 -15 -26 0 -11 -34 -14 -180 -14 -170 0 -180 -1 -180 -19 0 -10 7 -21 15 -25 21 -8 21 -124 0 -132 -19 -8 -19 -40 0 -48 13 -4 15 -39 15 -226 l0 -220 -41 0 -40 0 -44 92 c-137 291 -137 615 -1 904 105 221 264 388 476 498 210 109 424 146 653 111z m-525 -437 c7 -7 12 -20 12 -30 0 -13 -8 -18 -30 -18 -25 0 -30 4 -30 23 0 37 24 49 48 25z m780 -21 c3 -24 0 -27 -27 -27 -23 0 -31 5 -31 18 0 46 53 55 58 9z m-768 -172 l0 -95 -30 0 -30 0 0 95 0 95 30 0 30 0 0 -95z m770 0 l0 -95 -30 0 -30 0 0 95 0 95 30 0 30 0 0 -95z m-110 -5 c0 -20 -7 -20 -305 -20 -298 0 -305 0 -305 20 0 20 7 20 305 20 298 0 305 0 305 -20z m0 -79 c0 -6 -4 -13 -10 -16 -5 -3 -10 -17 -10 -31 l0 -24 -285 0 -285 0 0 24 c0 14 -4 28 -10 31 -34 21 14 25 295 25 184 0 305 -4 305 -9z m-640 -116 l0 -55 -50 0 -50 0 0 55 0 55 50 0 50 0 0 -55z m770 0 l0 -55 -50 0 -50 0 0 55 0 55 50 0 50 0 0 -55z m-668 -37 c2 -25 8 -34 26 -36 19 -3 22 1 22 32 0 33 2 36 30 36 28 0 30 -3 30 -36 0 -31 3 -35 23 -32 17 2 23 11 25 36 3 26 8 32 27 32 19 0 24 -6 27 -32 2 -25 8 -33 23 -33 15 0 21 8 23 33 3 26 8 32 27 32 19 0 24 -6 27 -32 2 -25 8 -34 26 -36 19 -3 22 1 22 32 0 33 2 36 30 36 28 0 30 -3 30 -36 0 -31 3 -35 23 -32 17 2 23 11 25 36 3 26 7 32 28 32 19 0 24 -5 24 -24 0 -13 -7 -29 -15 -36 -8 -7 -15 -19 -15 -26 0 -12 -45 -14 -255 -14 -210 0 -255 2 -255 14 0 7 -7 19 -15 26 -8 7 -15 23 -15 36 0 19 5 24 24 24 21 0 25 -6 28 -32z m-74 -105 l3 -33 -80 0 -81 0 0 35 0 36 78 -3 77 -3 3 -32z m772 2 l0 -35 -80 0 -80 0 0 28 c0 16 3 32 7 35 3 4 39 7 80 7 l73 0 0 -35z m-980 -26 c0 -7 -8 -18 -17 -25 -17 -13 -17 -15 0 -28 9 -7 17 -25 17 -40 l0 -27 -137 3 -138 3 -3 63 -3 62 141 0 c98 0 140 -3 140 -11z m770 -4 c0 -8 -4 -15 -10 -15 -5 0 -10 -9 -10 -20 0 -11 5 -20 10 -20 6 0 10 -98 10 -275 l0 -275 -30 0 -30 0 0 148 c0 167 -12 226 -62 305 -30 48 -109 117 -133 117 -24 0 -103 -69 -133 -117 -50 -79 -62 -138 -62 -305 l0 -148 -30 0 -30 0 0 275 c0 177 4 275 10 275 6 0 10 9 10 20 0 11 -4 20 -10 20 -5 0 -10 7 -10 15 0 13 35 15 255 15 220 0 255 -2 255 -15z m538 -47 l-3 -63 -137 -3 -138 -3 0 27 c0 15 8 33 18 40 16 13 16 15 0 28 -40 30 -21 36 122 36 l141 0 -3 -62z m-1103 -28 c-3 -5 -40 -10 -81 -10 -43 0 -74 4 -74 10 0 6 34 10 81 10 51 0 78 -4 74 -10z m775 0 c0 -6 -31 -10 -74 -10 -41 0 -78 5 -81 10 -4 6 23 10 74 10 47 0 81 -4 81 -10z m-415 -57 c21 -20 50 -62 64 -92 25 -53 26 -64 26 -216 l0 -160 -140 0 -140 0 0 160 c0 152 1 163 26 216 26 55 91 129 114 129 7 0 29 -17 50 -37z m-357 -150 l-3 -148 -75 0 -75 0 -3 148 -3 147 81 0 81 0 -3 -147z m770 0 l-3 -148 -75 0 -75 0 -3 148 -3 147 81 0 81 0 -3 -147z m-1225 97 c3 -12 14 -20 26 -20 14 0 21 6 21 20 0 13 7 20 20 20 13 0 20 -7 20 -20 0 -14 7 -20 21 -20 12 0 23 8 26 20 7 25 33 26 33 1 0 -10 6 -21 14 -24 16 -6 36 11 36 30 0 7 7 13 15 13 13 0 15 -31 15 -220 0 -183 -2 -220 -14 -220 -12 0 -15 26 -18 129 -3 126 -4 131 -33 173 -17 23 -43 47 -59 53 -25 9 -31 6 -66 -31 -49 -53 -60 -94 -60 -222 0 -79 -3 -103 -12 -100 -20 7 -24 438 -4 438 7 0 16 -9 19 -20z m1307 7 c0 -19 20 -36 36 -30 8 3 14 14 14 24 0 25 26 24 33 -1 3 -12 14 -20 26 -20 14 0 21 6 21 20 0 13 7 20 20 20 13 0 20 -7 20 -20 0 -14 7 -20 21 -20 12 0 23 8 26 20 3 11 12 20 19 20 20 0 16 -431 -3 -438 -10 -3 -13 21 -13 100 0 128 -11 169 -60 222 -35 37 -41 40 -66 31 -16 -6 -42 -30 -59 -53 -29 -42 -30 -47 -33 -173 -3 -103 -6 -129 -18 -129 -12 0 -14 37 -14 220 0 189 2 220 15 220 8 0 15 -6 15 -13z m-1158 -167 c15 -29 18 -53 16 -144 -2 -75 -7 -111 -15 -113 -9 -3 -13 22 -15 94 -3 93 -4 98 -25 101 -22 3 -22 0 -25 -95 -2 -79 -6 -98 -18 -98 -12 0 -16 17 -18 80 -4 104 4 157 30 190 26 33 46 29 70 -15z m1302 7 c19 -25 21 -42 21 -145 0 -97 -3 -117 -15 -117 -12 0 -16 19 -18 98 -3 95 -3 98 -25 95 -21 -3 -22 -8 -25 -101 -2 -72 -6 -97 -15 -94 -8 3 -12 38 -12 123 0 100 3 123 19 147 23 33 42 32 70 -6z m-996 -204 l-3 -58 -75 0 -75 0 -3 58 -3 57 81 0 81 0 -3 -57z m770 0 l-3 -58 -75 0 -75 0 -3 58 -3 57 81 0 81 0 -3 -57z m422 -120 c0 -15 -87 -117 -150 -177 -88 -82 -169 -137 -284 -192 -396 -187 -864 -111 -1186 192 -63 60 -150 162 -150 177 0 4 398 7 885 7 487 0 885 -3 885 -7z"></path></g></svg>