<svg xmlns="http://www.w3.org/2000/svg" width="391.000000pt" height="437.000000pt" viewBox="0 0 391.000000 437.000000" preserveAspectRatio="xMidYMid meet"><g transform="translate(0.000000,437.000000) scale(0.100000,-0.100000)" fill="#000000" stroke="none"><path d="M1318 4270 l-21 -51 -28 26 c-41 40 -63 30 -70 -30 -4 -28 -16 -70 -28 -95 -22 -48 -27 -113 -11 -154 8 -22 6 -25 -18 -28 l-27 -3 0 -95 0 -95 43 -3 c33 -3 42 -7 42 -22 0 -10 -5 -22 -11 -26 -7 -4 -9 -22 -6 -47 3 -22 1 -51 -4 -64 -6 -16 -5 -31 1 -44 8 -13 7 -25 0 -40 -9 -16 -7 -29 7 -59 l19 -38 -42 -21 c-24 -11 -83 -45 -131 -75 -410 -255 -701 -686 -796 -1176 -31 -162 -30 -472 1 -635 107 -548 463 -1015 954 -1254 385 -188 806 -229 1228 -121 578 148 1069 628 1235 1209 71 246 87 529 44 780 -120 712 -675 1287 -1379 1431 -217 44 -485 46 -685 5 -38 -8 -73 -15 -77 -15 -4 0 -10 20 -13 44 -7 45 -62 116 -91 116 -8 0 -14 10 -14 25 0 21 5 25 30 25 18 0 33 7 39 18 11 21 12 141 0 163 -5 11 -1 35 13 68 20 46 21 57 10 107 -15 71 -28 87 -64 80 -18 -4 -28 -1 -28 7 0 6 -13 40 -30 75 -38 81 -62 84 -92 12z m65 -180 c-19 -51 33 -71 63 -24 13 19 19 22 26 12 14 -22 -2 -71 -35 -105 -30 -32 -33 -33 -114 -33 -81 0 -83 0 -98 30 -20 40 -19 72 7 131 21 51 38 51 38 1 0 -27 27 -40 44 -21 7 8 21 41 31 74 l18 60 16 -48 c11 -37 12 -55 4 -77z m67 -250 l0 -40 -140 0 -140 0 0 40 0 40 140 0 140 0 0 -40z m-74 -107 c-7 -7 -98 -5 -105 3 -2 2 22 4 54 4 32 0 55 -3 51 -7z m-26 -79 c0 -12 -10 -14 -52 -12 -74 4 -77 28 -4 28 44 0 56 -3 56 -16z m120 -49 c17 -20 8 -170 -12 -215 -16 -34 -16 -32 -17 98 -1 72 3 132 8 132 5 0 14 -7 21 -15z m-122 -42 c3 -9 -12 -13 -52 -13 -44 0 -56 3 -56 16 0 12 10 14 52 12 30 -2 53 -8 56 -15z m0 -90 c3 -9 -12 -13 -52 -13 -44 0 -56 3 -56 16 0 12 10 14 52 12 30 -2 53 -8 56 -15z m947 -13 c321 -68 595 -212 831 -437 603 -573 684 -1527 187 -2199 -88 -118 -256 -283 -373 -366 -80 -57 -294 -178 -314 -178 -15 0 -4 57 20 107 37 75 38 112 10 333 -22 180 -23 196 -8 204 57 32 112 133 112 208 0 27 2 30 25 24 34 -9 81 17 89 49 4 14 12 25 18 25 16 0 48 30 48 46 0 7 12 26 28 42 88 95 94 103 87 129 -5 21 1 33 32 65 30 31 35 42 27 55 -12 20 -344 263 -358 263 -6 0 -34 -24 -64 -52 l-53 -53 -25 30 c-98 116 -101 121 -107 185 -4 34 -14 76 -22 93 -17 36 -86 117 -100 117 -16 0 -55 43 -55 61 0 9 -7 33 -16 54 -8 21 -13 44 -10 52 4 8 1 33 -4 55 -10 33 -8 46 9 82 19 38 20 51 12 140 -6 54 -6 108 -1 120 5 12 54 48 119 86 89 52 111 69 111 88 0 12 -6 25 -12 27 -7 3 -63 -6 -125 -19 -62 -13 -114 -21 -118 -18 -12 13 -2 39 59 144 50 88 62 116 55 130 -5 10 -15 18 -22 18 -7 0 -59 -36 -116 -80 -56 -44 -106 -80 -109 -80 -22 1 -34 27 -59 130 -27 107 -31 115 -54 115 -22 0 -28 -11 -64 -113 -38 -107 -42 -113 -74 -122 -34 -9 -36 -8 -138 86 -58 52 -109 94 -115 92 -33 -11 -28 -36 26 -151 48 -101 54 -120 43 -137 -6 -11 -15 -20 -20 -20 -17 0 -182 43 -190 50 -4 3 -18 69 -31 145 -25 148 -23 184 13 247 10 18 24 49 30 70 11 33 17 37 63 49 188 44 517 49 703 9z m-915 -100 l0 -40 -50 0 -50 0 0 40 0 40 50 0 50 0 0 -40z m-160 -66 c0 -9 8 -28 18 -42 16 -25 18 -55 16 -372 -2 -319 -3 -351 -23 -425 -31 -114 -23 -173 31 -225 37 -37 39 -41 33 -83 -7 -43 -5 -47 48 -109 l54 -64 -24 -48 -24 -48 21 -54 c12 -29 29 -59 37 -65 12 -10 7 -19 -30 -58 -64 -66 -70 -81 -58 -148 13 -67 49 -119 91 -128 35 -8 35 -5 14 -143 -14 -86 -23 -115 -46 -148 l-29 -41 41 -135 40 -136 -13 -233 c-12 -196 -12 -238 0 -256 15 -25 17 -61 4 -82 -8 -12 -19 -10 -68 9 -331 132 -626 380 -813 685 -92 150 -179 365 -210 520 -6 33 -19 85 -28 115 -13 43 -17 95 -17 240 1 184 1 186 42 345 45 170 71 248 126 367 139 301 405 585 702 750 58 32 65 33 65 12z m185 -46 c-3 -13 8 -106 25 -208 21 -119 34 -237 37 -331 l6 -146 -36 -54 c-20 -30 -44 -65 -55 -78 -19 -23 -20 -23 -29 -5 -30 57 -46 315 -37 601 l7 232 41 4 c22 2 42 4 44 5 1 1 0 -8 -3 -20z m653 -214 c-7 -7 -38 7 -38 16 0 5 5 21 11 37 l12 28 10 -38 c5 -21 7 -40 5 -43z m-255 -57 c-4 -6 -12 -3 -20 8 -20 28 -16 41 7 20 11 -10 17 -22 13 -28z m455 4 c-8 -12 -18 -18 -21 -14 -4 3 0 15 10 25 21 24 29 15 11 -11z m-190 -38 c-2 -22 -8 -28 -28 -28 -20 0 -26 6 -28 28 -3 24 0 27 28 27 28 0 31 -3 28 -27z m-118 -12 c0 -40 -36 -50 -53 -14 -9 19 -8 26 4 34 29 18 49 10 49 -20z m210 9 c16 -9 18 -14 9 -34 -16 -35 -47 -24 -41 15 5 33 6 33 32 19z m-320 -51 c9 -15 8 -24 -1 -35 -15 -19 -22 -18 -37 7 -10 16 -10 24 -1 35 16 19 26 18 39 -7z m400 -34 c0 -8 -7 -15 -15 -15 -9 0 -12 6 -9 15 4 8 10 15 15 15 5 0 9 -7 9 -15z m-548 -112 c36 -35 36 -35 21 -71 -17 -41 -11 -77 17 -92 23 -12 26 -42 6 -59 -22 -19 -62 21 -70 70 -10 63 -39 111 -90 147 -25 18 -46 39 -46 46 0 8 -3 28 -6 45 l-7 32 69 -41 c38 -23 85 -58 106 -77z m388 96 c64 -14 113 -52 144 -109 15 -28 25 -50 22 -50 -10 0 -109 66 -156 104 -25 20 -51 36 -59 36 -14 0 -151 -89 -188 -123 -13 -11 -23 -31 -23 -44 0 -18 -5 -23 -25 -23 -31 0 -31 9 -1 68 33 65 92 120 146 137 55 17 82 18 140 4z m-310 -50 c0 -11 -4 -19 -9 -19 -16 0 -31 27 -25 44 8 21 34 2 34 -25z m275 -49 c3 -6 33 -28 66 -50 57 -40 59 -42 59 -86 0 -119 -102 -187 -206 -138 -41 19 -68 68 -78 135 l-7 47 72 51 c77 54 84 57 94 41z m-438 -175 l8 -50 174 -130 c155 -116 177 -130 207 -127 27 3 39 -2 66 -28 21 -22 45 -34 71 -38 l40 -5 -24 -18 c-13 -10 -29 -19 -36 -19 -7 0 -26 -13 -43 -30 -17 -16 -41 -30 -53 -30 -12 0 -47 -14 -77 -30 -30 -16 -69 -36 -87 -45 -57 -27 -276 -156 -326 -191 -27 -20 -55 -33 -63 -30 -8 3 -22 22 -30 43 -15 35 -15 40 5 80 12 24 21 50 21 59 0 8 8 27 18 41 18 28 76 172 95 236 10 34 9 41 -5 51 -16 12 -16 15 8 37 34 31 45 54 38 73 -12 30 -45 16 -97 -41 -95 -104 -188 -142 -221 -90 -15 23 -19 48 -17 106 l1 34 23 -33 c12 -18 32 -39 43 -47 20 -13 25 -11 60 24 38 39 174 239 174 257 0 28 20 -15 27 -59z m651 -21 c2 -47 2 -48 -13 -24 -18 31 -20 83 -2 78 7 -3 13 -25 15 -54z m-425 5 c6 -24 -30 -92 -45 -83 -5 3 -3 16 6 30 9 13 16 35 16 49 0 30 16 33 23 4z m393 -147 c9 -31 22 -81 29 -109 14 -59 15 -59 -57 -47 l-38 7 0 84 c0 65 4 90 18 108 9 12 20 21 24 18 4 -2 15 -30 24 -61z m-346 22 c0 -22 -2 -24 -14 -14 -8 6 -12 18 -9 26 9 23 23 16 23 -12z m220 -96 c0 -38 -3 -68 -6 -68 -14 0 -111 53 -131 72 -13 12 -23 31 -23 42 0 20 6 21 80 21 l80 0 0 -67z m-596 -85 c-9 -21 -27 -69 -41 -108 -37 -104 -35 -102 -71 -57 -50 62 -42 112 21 136 23 9 56 27 72 41 17 13 31 24 33 25 1 0 -5 -17 -14 -37z m804 -99 c30 -20 19 -34 -26 -34 -56 0 -71 14 -36 34 36 19 35 19 62 0z m-137 -63 c20 -18 19 -20 -121 -147 -77 -71 -193 -165 -258 -209 -64 -44 -167 -115 -229 -158 -142 -98 -161 -99 -181 -10 -8 34 -6 46 10 72 36 57 237 195 448 309 120 64 304 161 308 162 2 0 12 -8 23 -19z m171 -45 c11 -16 10 -176 -1 -176 -5 0 -16 -16 -26 -36 -15 -32 -16 -46 -6 -109 14 -84 9 -101 -52 -188 l-42 -60 -3 59 c-1 32 1 154 6 271 9 239 12 247 79 249 21 1 41 -4 45 -10z m177 -708 c44 -359 83 -683 87 -720 l7 -66 -69 14 c-99 20 -100 21 -81 42 14 16 12 56 -28 452 -24 239 -48 491 -54 560 -6 69 -14 137 -17 152 -5 21 0 33 21 54 26 26 27 31 26 123 -1 90 0 94 14 69 9 -17 43 -257 94 -680z m-368 325 c-7 -172 -19 -331 -32 -418 l-21 -140 -77 -80 c-42 -44 -181 -191 -310 -327 -129 -137 -236 -247 -237 -245 -1 1 3 89 8 194 l11 193 -37 125 c-25 83 -35 130 -28 138 224 290 572 708 639 770 47 43 87 76 90 73 3 -2 0 -130 -6 -283z m439 27 c-1 -10 -39 -55 -43 -50 -2 3 -7 32 -10 65 l-6 60 30 -35 c16 -19 29 -37 29 -40z m314 -29 c127 -93 134 -100 117 -115 -16 -15 -20 -14 -51 9 -59 43 -74 37 -158 -61 -18 -22 -43 -52 -55 -67 -12 -15 -39 -46 -59 -67 -47 -49 -51 -89 -11 -126 l27 -25 -22 -22 c-22 -21 -22 -21 -57 -3 -39 21 -38 16 -61 222 l-17 150 98 102 c54 56 102 102 106 102 5 0 69 -44 143 -99z m-1131 -23 c-24 -33 -286 -358 -287 -358 -8 0 29 186 38 192 6 4 65 46 131 92 66 47 122 85 124 86 2 0 -1 -6 -6 -12z m597 -551 c23 -230 40 -424 38 -432 -3 -13 -347 -280 -352 -273 -2 2 30 225 71 497 l74 495 43 46 c23 25 51 58 61 74 11 16 20 25 22 20 1 -5 21 -197 43 -427z m598 389 c25 -22 28 -36 9 -36 -17 0 -79 64 -71 73 7 7 21 -1 62 -37z m-70 -56 c30 -28 41 -50 24 -50 -15 0 -82 62 -77 71 9 14 17 11 53 -21z m-57 -72 c39 -31 49 -48 28 -48 -17 0 -79 51 -79 66 0 20 6 18 51 -18z m-41 -93 c23 -28 1 -28 -40 0 -40 28 -46 36 -34 48 7 7 53 -23 74 -48z m-119 -159 c16 9 1 -35 -23 -68 -23 -34 -38 -36 -38 -5 0 12 -3 39 -7 61 l-6 38 32 -16 c17 -9 36 -14 42 -10z m-652 -452 c-27 -186 -47 -349 -44 -361 8 -34 58 -78 104 -92 23 -6 39 -16 36 -21 -9 -15 -168 -22 -278 -12 -60 6 -111 12 -113 15 -2 2 3 24 12 48 8 24 46 164 84 312 l68 267 87 95 c48 53 89 94 91 92 2 -2 -19 -156 -47 -343z m-270 -136 c-58 -226 -88 -328 -95 -328 -8 0 -178 42 -181 45 -2 1 4 40 13 87 l16 85 145 152 c79 83 146 151 148 151 2 0 -19 -87 -46 -192z m650 22 c5 0 11 -44 15 -97 4 -54 9 -124 12 -155 l6 -57 -43 -11 c-24 -6 -52 -14 -62 -17 -18 -5 -18 3 -12 154 6 143 9 160 28 176 11 10 27 15 34 12 8 -3 18 -5 22 -5z m125 -52 c33 -203 33 -214 -3 -226 l-29 -10 -6 76 c-4 43 -9 103 -12 135 -6 56 -6 57 20 57 21 0 26 -6 30 -32z m73 -10 c-3 -8 -6 -5 -6 6 -1 11 2 17 5 13 3 -3 4 -12 1 -19z m-331 -40 c-3 -18 -8 -81 -12 -140 -5 -98 -8 -107 -27 -112 -12 -3 -26 -6 -32 -6 -6 0 -9 44 -7 117 l3 118 32 27 c42 36 49 35 43 -4z m-140 -185 c-7 -7 -79 30 -83 42 -1 6 17 24 40 42 l42 32 3 -55 c2 -31 1 -59 -2 -61z"></path></g></svg>